<?xml version="1.0" encoding="UTF-8"?>
<!DOCTYPE svg PUBLIC "-//W3C//DTD SVG 1.1//EN" "http://www.w3.org/Graphics/SVG/1.1/DTD/svg11.dtd">
<!-- Creator: CorelDRAW -->
<svg xmlns="http://www.w3.org/2000/svg" xml:space="preserve" width="5in" height="5in" shape-rendering="geometricPrecision" text-rendering="geometricPrecision" image-rendering="optimizeQuality" fill-rule="evenodd" clip-rule="evenodd"
viewBox="0 0 500 500"
 xmlns:xlink="http://www.w3.org/1999/xlink">
 <g id="Layer_x0020_1">
  <metadata id="CorelCorpID_0Corel-Layer"/>
  <path fill="none" fill-opacity="0.760784" d="M392.309 40.5728l-333.687 0c-0.423228,0 -0.843307,0.0200787 -1.25984,0.0598425 -0.722835,0.263386 -1.4937,0.409843 -2.31732,0.429134 -8.85945,2.45039 -15.6106,13.8201 -15.6106,27.3689l0 362.148c0,15.322 8.63425,27.8575 19.1878,27.8575l379.488 0c10.5535,0 19.1878,-12.5354 19.1878,-27.8575l0 -362.148c0,-15.322 -8.63425,-27.8579 -19.1878,-27.8579l-45.8016 0z"/>
  <path fill="black" fill-rule="nonzero" fill-opacity="0.800000" d="M392.309 57.1748l-332.533 0 -0.306299 0.061811c-2.02835,2.02441 -3.36811,6.10787 -3.36811,11.1949l0 362.147 0 0.00433071 -0.0649606 0c0.000393701,4.20118 1.03701,7.80787 2.70669,10.2319 0.433465,0.629528 -0.676378,1.02047 -0.124803,1.02047l0 -0.0649606 0.00393701 0 379.489 0 0.00275591 0 0 0.0649606c0.550787,0 -0.557087,-0.391732 -0.122835,-1.02205 1.6685,-2.42283 2.70512,-6.02756 2.70591,-10.2264l-0.0649606 0 0 -0.00826772 0 -362.147 0 -0.00433071 0.0649606 0c-0.000393701,-4.20157 -1.03701,-7.80827 -2.70669,-10.2323 -0.433465,-0.629134 0.676378,-1.02008 0.124803,-1.02008l0 0.0649606 -0.00393701 0 -45.8024 0 0 -0.0649606zm-333.687 -33.2031l333.687 0 0 -0.0649606 45.8024 0 0.00393701 0 0 0.0649606c11.1016,0.00314961 20.6988,5.87835 27.2185,15.3429 5.28504,7.67244 8.56575,17.9945 8.56654,29.1126l0.0649606 0 0 0.00433071 0 362.147 0 0.00826772 -0.0649606 0c-0.0019685,11.1157 -3.28228,21.4354 -8.56575,29.1067 -6.5189,9.46575 -16.1181,15.3425 -27.2205,15.3449l0 0.0649606 -0.00275591 0 -379.489 0 -0.00393701 0 0 -0.0649606c-11.102,-0.00314961 -20.6992,-5.87913 -27.2185,-15.3433 -5.28504,-7.67244 -8.56575,-17.9945 -8.56654,-29.1122l-0.0649606 0 0 -0.00433071 0 -362.147c0,-14.3181 5.60118,-27.4205 14.0327,-35.3992 1.95787,-1.85315 4.03543,-3.43937 6.20591,-4.72441l-0.0169291 -0.0291339c2.35157,-1.38661 4.89961,-2.47598 7.61969,-3.22953l0.0653543 0 0.00866142 -0.0023622 2.20236 -0.320079 -0.37874 0.101575 0.603937 -0.134252 0.149606 -0.0216535 -0.0023622 -0.0110236 0.287008 -0.0637795c-0.115748,0.00866142 -0.212598,0.0153543 -0.274016,0.0173228l-0.0200787 0.00669291 -0.0011811 -0.00590551c-0.061811,0.0011811 -0.0728346,-0.00433071 -0.00314961,-0.0173228 0.115354,-0.0216535 0.107874,-0.0110236 0.0244094,0.0165354l-0.0212598 0.000787402 0.0011811 0.00590551c-0.0799213,0.0255906 -0.211417,0.0629921 -0.365354,0.105118l0.225197 -0.0326772 0.147244 -0.0326772 0.0023622 0.0110236 0.868898 -0.125984c-0.201181,0.0192913 -0.413386,0.038189 -0.584252,0.0511811l2.25433 -0.500787c0.643701,-0.0622047 1.0185,-0.096063 1.15236,-0.103543l0.0649606 0 0.101575 -0.00551181 0.0653543 0c0.15748,-0.00748031 0.611417,-0.0133858 1.38858,-0.0161417l0 -0.0649606 0.0496063 0 0 0.0649606z"/>
  <polygon fill="black" fill-opacity="0.780392" points="412.761,174.4 88.3575,175.5 251.109,337.152 "/>
 </g>
</svg>
