<?xml version="1.0" encoding="UTF-8"?>
<!DOCTYPE svg PUBLIC "-//W3C//DTD SVG 1.1//EN" "http://www.w3.org/Graphics/SVG/1.1/DTD/svg11.dtd">
<!-- Creator: CorelDRAW -->
<svg xmlns="http://www.w3.org/2000/svg" xml:space="preserve" width="100%" height="100%" shape-rendering="geometricPrecision" text-rendering="geometricPrecision" image-rendering="optimizeQuality" fill-rule="evenodd" clip-rule="evenodd"
viewBox="0 0 500 500"
 xmlns:xlink="http://www.w3.org/1999/xlink">
 <g id="Layer_x0020_1">
  <metadata id="CorelCorpID_0Corel-Layer"/>
  <path fill="yellow" fill-rule="nonzero" stroke="forestgreen" stroke-width="11.111" d="M74.6283 315.685c0,-61.2921 0,-122.585 0,-183.877 0,-33.8425 26.078,-61.2925 58.228,-61.2925 85.1031,0 170.207,0 255.31,0 32.15,0 58.228,27.45 58.228,61.2925 0,61.2921 0,122.585 0,183.877 0,33.8421 -26.078,61.2925 -58.228,61.2925 -51.8457,0 -103.692,0 -155.538,0 -39.6886,29.3461 -79.3783,58.6925 -119.067,88.039 11.8063,-29.3465 23.6138,-58.6929 35.4205,-88.039 -5.3752,0 -10.7504,0 -16.1256,0 -32.15,0 -58.228,-27.4504 -58.228,-61.2925zm0 -91.9386m17.0575 -135.276m168.826 -17.9551m168.825 17.9551m17.0583 135.276m-17.0583 135.276m-118.939 17.9555m-137.302 44.0193m-41.824 0m9.64803 -44.0193m-49.2335 -17.9555"/>
  <path fill="forestgreen" fill-rule="nonzero" stroke="seagreen" stroke-width="0.3" d="M271.01 275.578l-36.4402 0c-0.0984252,-5.54567 -0.14685,-8.88228 -0.14685,-10.1161 0,-12.4252 1.95157,-22.6449 5.85433,-30.6543 3.90315,-8.06181 11.7555,-17.0484 23.4646,-27.1138 11.7071,-10.0122 18.7315,-16.5843 20.9752,-19.7173 3.56063,-4.87795 5.31693,-10.322 5.31693,-16.226 0,-8.21693 -3.12165,-15.2508 -9.36496,-21.1567 -6.24528,-5.85315 -14.6354,-8.78071 -25.2205,-8.78071 -10.1965,0 -18.7319,3.08189 -25.611,9.19173 -6.82953,6.11181 -11.5602,15.4563 -14.1461,27.9854l-36.8307 -4.82717c1.0248,-17.9709 8.29331,-33.2217 21.7563,-45.7524 13.5134,-12.5287 31.1717,-18.7933 53.1236,-18.7933 23.0252,0 41.3681,6.36811 55.0264,19.05 13.6102,12.6835 20.4398,27.4213 20.4398,44.315 0,9.2937 -2.5374,18.1272 -7.5122,26.4457 -5.0248,8.3185 -15.7087,19.6665 -32.1,33.9933 -8.48661,7.44528 -13.7551,13.402 -15.8051,17.9197 -2.04843,4.51969 -2.9748,12.5815 -2.77953,24.237zm-36.4402 56.8437l0 -42.2606 40.148 0 0 42.2606 -40.148 0z"/>
 </g>
</svg>
