<?xml version="1.0" encoding="UTF-8"?>
<!DOCTYPE svg PUBLIC "-//W3C//DTD SVG 1.1//EN" "http://www.w3.org/Graphics/SVG/1.1/DTD/svg11.dtd">
<!-- Creator: CorelDRAW -->
<svg xmlns="http://www.w3.org/2000/svg" xml:space="preserve" width="100%" height="100%" shape-rendering="geometricPrecision" text-rendering="geometricPrecision" image-rendering="optimizeQuality" fill-rule="evenodd" clip-rule="evenodd"
viewBox="0 0 500 500"
 xmlns:xlink="http://www.w3.org/1999/xlink">
 <defs>
   <linearGradient id="id0" gradientUnits="userSpaceOnUse" x1="316.417" y1="294.914" x2="372.121" y2="375.279">
    <stop offset="0" stop-color="yellow"/>
    <stop offset="1" stop-color="white"/>
   </linearGradient>
   <linearGradient id="id1" gradientUnits="userSpaceOnUse" x1="166.269" y1="305.994" x2="96.0535" y2="407.087">
    <stop offset="0" stop-color="yellow"/>
    <stop offset="1" stop-color="white"/>
   </linearGradient>
   <radialGradient id="id2" gradientUnits="userSpaceOnUse" cx="251.274" cy="116.335" r="228" fx="251.274" fy="116.335">
    <stop offset="0" stop-color="white"/>
    <stop offset="1" stop-color="#42B4B1"/>
   </radialGradient>
 </defs>
 <g id="Layer_x0020_1">
  <metadata id="CorelCorpID_0Corel-Layer"/>
  <path fill="url(#id0)" stroke="black" stroke-width="11.111" stroke-linejoin="bevel" d="M479.274 180.807c-0.331102,25.5031 -6.31811,57.2693 -5.79685,106.944l-250.576 189.543 -3.47087 -96.6118 259.843 -199.876z"/>
  <polygon fill="url(#id1)" stroke="black" stroke-width="11.111" stroke-linejoin="bevel" points="219.431,378.646 225.58,479.456 29.4232,321.088 23.2744,223.331 "/>
  <polygon fill="url(#id2)" stroke="black" stroke-width="11.111" points="283.118,23.4563 479.274,180.807 219.431,380.682 23.2744,223.331 "/>
  <path fill="#FFF500" fill-rule="nonzero" stroke="black" stroke-width="5.55551" d="M239.344 248.218l-40.1894 -38.2437 3.83858 -3.98268c6.53583,-6.7815 12.6193,-11.5854 18.2528,-14.3417 5.66772,-2.79213 11.6783,-4.43228 18.1362,-5.02795 6.45827,-0.595276 19.3031,-0.204331 38.5343,1.17441 10.1657,0.800787 17.0992,-0.718504 20.7992,-4.55787 3.73465,-3.8748 5.44921,-7.95276 5.24921,-12.2701 -0.270472,-4.31614 -2.7,-8.69094 -7.35827,-13.1236 -5.0189,-4.77598 -10.726,-7.04291 -17.1933,-6.8689 -6.43268,0.138189 -14.0945,3.92205 -22.8811,11.2437l-36.1803 -44.128c15.8626,-13.6575 32.9701,-20.4902 51.3209,-20.5685 18.3866,-0.0437008 37.439,9.34961 57.1902,28.1453 15.3827,14.6378 24.6902,29.6173 28.0303,44.9705 4.48504,20.8457 -0.153543,38.4433 -13.9854,52.7953 -5.74055,5.9563 -12.9689,10.1528 -21.6161,12.5169 -8.61142,2.39882 -21.9354,2.72008 -39.8311,0.961417 -12.5425,-1.13583 -21.3787,-0.946063 -26.5413,0.675591 -5.09213,1.62047 -10.3189,5.17598 -15.5752,10.6299zm-51.8331 -28.9634l43.078 40.9929 -36.3783 37.7461 -43.078 -40.9929 36.3783 -37.7461z"/>
 </g>
</svg>
