<?xml version="1.0" encoding="UTF-8"?>
<!DOCTYPE svg PUBLIC "-//W3C//DTD SVG 1.1//EN" "http://www.w3.org/Graphics/SVG/1.1/DTD/svg11.dtd">
<!-- Creator: CorelDRAW -->
<svg xmlns="http://www.w3.org/2000/svg" xml:space="preserve" width="5in" height="5in" shape-rendering="geometricPrecision" text-rendering="geometricPrecision" image-rendering="optimizeQuality" fill-rule="evenodd" clip-rule="evenodd"
viewBox="0 0 500 500"
 xmlns:xlink="http://www.w3.org/1999/xlink">
 <defs>
   <radialGradient id="id0" gradientUnits="userSpaceOnUse" cx="155.075" cy="183.871" r="210.314" fx="155.075" fy="183.871">
    <stop offset="0" stop-color="white"/>
    <stop offset="1" stop-color="#B6DDC7"/>
   </radialGradient>
 </defs>
 <g id="Layer_x0020_1">
  <metadata id="CorelCorpID_0Corel-Layer"/>
  <rect fill="none" stroke="black" stroke-width="0.3" x="45.3398" y="119.394" width="420.628" height="289.719" rx="19.3146" ry="19.3146"/>
  <path fill="url(#id0)" stroke="black" stroke-width="11.111" d="M410.396 18.9476l-374.469 0c-0.474803,0 -0.946457,0.0224409 -1.41378,0.0673228 -0.811024,0.29685 -1.67598,0.462205 -2.60039,0.483858 -9.94252,2.76299 -17.5185,15.5846 -17.5185,30.863l0 408.382c0,17.2783 9.68937,31.4142 21.5327,31.4142l425.869 0c11.8433,0 21.5327,-14.1358 21.5327,-31.4142l0 -408.382c0,-17.2783 -9.68937,-31.4142 -21.5327,-31.4142l-51.3996 0z"/>
  <g id="_61849584">
   <g>
    <g>
     <g>
      <path id="_91494088" fill="indigo" fill-opacity="0.721569" d="M146.768 168.024c-1.46102,1.65276 -2.84291,3.3748 -4.13858,5.16024 -8.94724,12.3465 -14.0094,27.0626 -17.2776,41.8295 -1.92402,13.6071 -3.20118,27.3713 -3.28346,41.1197 -0.0366142,18.328 2.14252,36.922 9.01929,54.0315 6.67362,16.3921 18.0142,29.9709 33.2559,39.0378 5.75669,3.4311 11.9224,6.08386 18.335,8.02008 6.15827,1.85118 12.5295,2.92165 18.9654,2.99213 6.14055,0.0488189 12.261,-0.783071 18.1358,-2.58346 6.44213,-2.00315 12.4354,-5.24724 17.9772,-9.06063 4.71575,-3.26969 8.57205,-7.57835 11.4547,-12.5303 3.39331,-5.6185 5.7378,-11.8909 7.93425,-18.0496 2.38661,0.587402 8.11693,-6.27953 12.9343,-5.03543 2.15394,6.67992 8.5248,12.576 10.7232,20.4469 1.28071,4.47598 3.90827,8.78386 6.05984,12.8701 2.55709,4.6874 5.09606,9.41811 7.19724,14.3319 0.719685,1.66417 1.39803,3.35709 1.8626,5.1126 0.249213,0.949606 0.435039,1.91496 0.491732,2.89685 0.0968504,1.83071 -0.259055,3.64843 -1.15866,5.25827 -0.994488,1.35039 -1.87087,2.53622 -3.28346,3.49055 -1.41181,0.944488 -3.03819,1.52244 -4.73268,1.65827 -1.6311,0.116142 -3.25551,-0.170866 -4.75512,-0.819291 -1.12047,-0.494488 -2.14567,-1.17087 -3.06614,-1.97638 -2.64449,-2.10669 -5.17953,-4.34961 -7.63346,-6.6748 -0.362598,0.152756 -15.6799,9.86024 -27.5,11.874 -12.9807,2.2248 -26.1508,3.13504 -39.3146,2.96417 -15.8945,-0.238189 -31.7626,-2.11457 -47.1331,-6.23543 -24.6768,-6.44961 -47.1626,-18.8906 -66.4764,-35.4559 -19.5394,-16.7591 -37.389,-39.1894 -41.5445,-65.3398 -0.0755906,-0.445669 -1.01496,-4.92402 -0.248425,-5.1252 0.66378,-0.0992126 1.79921,4.25906 1.94685,4.68031 8.19488,24.7937 22.9831,45.1248 43.0421,61.8886 18.9343,15.7787 40.728,27.7016 64.6567,33.8815 14.9331,3.95315 30.3228,5.75591 45.752,6.00276 12.8276,0.179528 25.6598,-0.693701 38.3146,-2.82402 11.9728,-2.00354 23.7213,-5.25827 34.9307,-9.93386 0.284646,0.272047 2.7874,4.50039 4.9374,6.22598 0.392126,0.346457 0.974016,0.740945 1.51772,0.985827 0.672441,0.294094 1.39567,0.437402 2.12992,0.390551 0.75,-0.0570866 1.46575,-0.312598 2.09173,-0.727953 0.549213,-0.367323 1.0122,-0.840945 1.4063,-1.3689 0.454331,-0.808661 0.673622,-1.54606 0.63189,-2.47677 -0.0314961,-0.605512 -0.152756,-1.19921 -0.301969,-1.78543 -0.381102,-1.49055 -0.964961,-2.92638 -1.5685,-4.33819 -2.02126,-4.81535 -4.49764,-9.44606 -6.98189,-14.0339 -2.33425,-4.45748 -5.00236,-9.08622 -6.41575,-13.9496 -1.31732,-4.87047 -2.85945,-9.68386 -4.39213,-14.4894 -1.5689,-0.41378 -3.05945,-2.4311 -5.02402,-2.9252 -1.87677,5.19488 -9.00472,15.3587 -12.5122,21.0902 -3.30276,5.61535 -7.69567,10.485 -13.074,14.1795 -5.97953,4.07559 -12.4469,7.50827 -19.3858,9.62756 -6.36614,1.91378 -12.9823,2.78661 -19.6256,2.70709 -6.88346,-0.109843 -13.6961,-1.27402 -20.2748,-3.28346 -6.75827,-2.07126 -13.2606,-4.89843 -19.3193,-8.54606 -16.0516,-9.64567 -28.0236,-24.011 -35.0339,-41.3409 -7.05276,-17.6606 -9.34055,-36.8272 -9.32165,-55.7343 0.0472441,-11.8634 0.99252,-23.7063 2.39173,-35.4819 0.28189,-2.35236 0.582283,-4.70315 0.899606,-7.05118 3.26299,-15.2701 8.5126,-30.5059 17.487,-43.4094 9.67598,-13.7413 23.4988,-23.2579 39.2929,-28.7063 3.45787,-1.04764 6.94685,-1.98937 10.4638,-2.81693 3.10866,-0.661024 6.27283,-1.00079 9.44606,-1.13071 7.35709,-0.279528 14.7091,0.587795 21.7213,2.86614 7.51339,2.38071 14.3803,6.37047 20.5697,11.2087 3.76339,2.77677 6.33543,6.98622 8.47047,11.063 2.99843,5.36457 5.94331,10.7598 8.93858,16.126 0.129134,-0.0968504 0.251575,-0.199606 0.358661,-0.321654 0.642913,-0.798819 1.06693,-1.78386 1.45748,-2.72283 1.62992,-6.74213 3.27992,-13.626 6.28543,-19.9161 1.25039,-2.89921 2.61378,-5.84213 4.56024,-8.35039 0.874409,-1.12165 1.80591,-2.46417 3.00709,-3.26772 1.7811,-3.38307 3.56102,-6.77283 5.45354,-10.0957 0.582677,-2.34606 1.23386,-3.12087 1.75866,-0.00275591 1.31811,3.64409 -0.185039,8.43031 -1.07598,11.9547 -0.500394,4.44252 -2.36024,8.98307 -3.68819,13.2059 -1.94606,6.64961 -3.90039,13.2972 -5.79803,19.9606 -1.23701,2.66496 -2.35276,5.16654 -4.52638,7.23504 -1.47402,1.3811 -3.26102,2.39803 -5.22402,2.89173 -1.3122,0.32874 -2.68504,0.402756 -4.02638,0.235433 -1.29843,-0.167323 -2.55709,-0.565354 -3.7189,-1.16732 -3.56378,-7.19213 -8.96299,-14.0677 -12.6339,-21.6028 -1.37913,-2.93031 -2.97283,-6.3185 -5.53976,-8.42402 -5.17717,-4.45315 -10.9504,-8.24685 -17.3823,-10.6193 -6.0685,-2.28228 -12.489,-3.29409 -18.9626,-3.2748 -2.81772,0.0165354 -5.63504,0.222835 -8.41299,0.705118 -3.35512,0.648819 -6.6815,1.46063 -9.9748,2.36929 -12.4287,3.90827 -23.824,10.6559 -32.5248,20.4299zm110.778 11.0827l0.112205 0.199606c0.208268,0.057874 0.0531496,-0.0653543 -0.112205,-0.199606z"/>
     </g>
     <g>
      <path id="_92024992" fill="indigo" fill-opacity="0.721569" d="M130.296 202.962c-1.25,4.09331 -2.31181,8.24291 -3.22323,12.4244 -1.87913,13.4807 -3.11575,27.1291 -3.1563,40.7469 0,18.0701 2.15866,36.4268 8.9937,53.278 6.53937,15.9606 17.6071,29.1764 32.489,37.974 5.61417,3.32953 11.6299,5.90472 17.8819,7.77126 5.9626,1.77992 12.135,2.80472 18.3634,2.85433 5.91299,0.0295276 11.7972,-0.782283 17.4504,-2.52835 6.21496,-1.95433 11.9878,-5.11181 17.3307,-8.80551 4.42244,-3.08465 8.02283,-7.14567 10.7205,-11.8035 3.29882,-5.50669 5.56614,-11.6528 7.70079,-17.6803 3.25748,0.787402 9.88543,-8.12677 15.8268,-6.6063 2.36969,7.29331 10.0331,13.3949 12.5138,22.1055 1.20394,4.17717 3.84646,8.48386 5.91063,12.3783 2.59921,4.73898 5.17638,9.51969 7.32795,14.4827 0.777165,1.78189 1.50394,3.59724 2.00787,5.47756 0.299213,1.12126 0.513386,2.26417 0.583071,3.42402 0.130709,2.33189 -0.344882,4.64961 -1.4874,6.69803 -1.24331,1.69567 -2.32323,3.1748 -4.09252,4.37362 -1.78425,1.19724 -3.84685,1.93031 -5.99055,2.10197 -2.05591,0.150394 -4.10906,-0.20748 -6.00079,-1.02323 -1.36811,-0.600394 -2.62244,-1.42008 -3.74803,-2.40079 -2.67441,-2.1122 -5.23661,-4.3685 -7.7189,-6.70394 -0.362205,0.154331 -11.8193,10.3453 -25.1913,12.6803 -13.1421,2.30787 -26.478,3.29331 -39.8157,3.18661 -16.152,-0.161417 -32.2768,-1.99252 -47.924,-6.06575 -25.2307,-6.40512 -48.2461,-18.9335 -68.1571,-35.5992 -20.987,-17.5898 -38.0272,-39.9732 -44.7059,-66.8831 -2.00433,-7.66181 -2.8185,-15.5921 -2.72362,-23.502 0.219685,-13.7508 3.32441,-27.2441 8.87402,-39.8138 6.09882,-13.6146 14.8272,-25.8307 24.8996,-36.7811 23.0681,-24.6193 52.9579,-40.8075 85.2134,-49.961 2.71024,-0.729528 5.43858,-1.3811 8.17913,-1.96024 1.3811,-0.487795 2.77362,-0.95 4.17953,-1.38228 4.09252,-1.10669 8.21299,-2.0874 12.3835,-2.85512 4.13031,-0.677953 8.29961,-0.996457 12.4854,-0.979921 6.14409,0.0370079 12.2626,0.757087 18.2047,2.22874 2.69685,0.217323 5.38504,0.527165 8.05197,0.981496 4.9248,0.859843 9.75157,2.26654 14.437,3.99961 0.674803,0.229134 10.224,2.76063 9.73465,4.44449 -0.577953,1.67047 -9.86575,-1.22165 -10.6142,-1.39921 -1.10906,-0.252362 -2.22126,-0.492126 -3.3378,-0.716142 5.2189,2.97677 10.0776,6.58031 14.5614,10.5945 3.34528,2.99528 5.95354,6.67992 8.10787,10.6098 0.872047,-2.41575 1.71063,-4.86142 2.62047,-7.27677 -2.43386,-0.345276 -4.82126,-1.02638 -7.06772,-2.02441 -12.7811,-6.39055 -1.48858,-3.18346 0.454331,-7.97402 1.65591,-5.26654 -8.02559,-9.2437 4.67598,-7.23819 1.34094,0.134646 2.71063,0.143307 4.03583,-0.124409 0.415354,-0.216929 0.847244,-0.402756 1.26181,-0.622047 0.45315,-0.296063 0.868504,-0.624803 1.22992,-1.03071 0.850394,-0.733858 1.78858,-1.41575 2.77795,-1.97638 1.63189,-0.902362 3.45197,-1.44764 5.32362,-1.47362 1.70906,-0.111024 3.55118,0.430315 5.04685,1.21772 1.63071,0.842913 3.00236,2.17283 3.97717,3.72008 1.23976,1.98386 1.78898,4.27717 1.8374,6.59921 0.159843,4.21063 -1.04764,8.45433 -2.17677,12.4665 -0.979528,4.45197 -2.58898,8.82717 -3.98071,13.1579 -2.01772,6.61299 -3.9811,13.2433 -5.88307,19.8906 -1.34252,2.88583 -2.53228,5.56614 -4.88937,7.8063 -1.63898,1.53346 -3.62559,2.65748 -5.80669,3.20591 -1.46969,0.366535 -3.00709,0.451181 -4.50906,0.262205 -1.45157,-0.187008 -2.86181,-0.632677 -4.16063,-1.30669 -3.66614,-7.39882 -9.42835,-14.4256 -13.2307,-22.2035 -1.29252,-2.73031 -2.78819,-6.03307 -5.22953,-7.96378 -5.06496,-4.33189 -10.7016,-8.01811 -16.9866,-10.3138 -5.9122,-2.20197 -12.1622,-3.16024 -18.461,-3.12283 -2.73386,0.0244094 -5.46693,0.23189 -8.16024,0.710236 -3.30276,0.65315 -6.57795,1.46181 -9.82087,2.36417 -14.2681,4.52126 -26.8831,12.9165 -35.7248,25.0811 -6.26063,8.67953 -10.5543,18.6094 -13.6787,28.8039zm-0.174016 -51.1654c-16.8835,9.21417 -32.2461,20.9933 -45.0697,35.7102 -8.72598,10.1004 -16.2677,21.3039 -21.3272,33.6988 -4.4126,10.8386 -6.73661,22.3984 -6.59606,34.111 0.0972441,6.50866 0.924016,13.0118 2.75512,19.2677 6.4685,23.2433 21.9512,42.1661 40.4929,57.0898 9.72913,7.80827 20.2366,14.5453 31.3961,19.9189 -9.15945,-9.35551 -16.4559,-20.4512 -21.6059,-32.7984 -8.19213,-19.8154 -11.0756,-41.3343 -11.1394,-62.6606 -0.0149606,-15.0969 1.37795,-30.1764 3.46063,-45.1185 1.12165,-5.17008 2.35354,-10.2937 3.89843,-15.3571 3.94921,-12.8425 9.4752,-25.2524 17.3996,-36.1551 1.97953,-2.70787 4.09606,-5.27559 6.33543,-7.70669zm127.212 207.5c4.00551,-1.23504 7.95709,-2.64331 11.8398,-4.23346 -1.15315,-2.11732 -2.32795,-4.25394 -3.43898,-6.42244 -2.39606,3.85945 -5.2122,7.43898 -8.40079,10.6559zm33.9961 1.79803c0.0917323,0.0649606 0.181496,0.130709 0.266142,0.195276 -0.0708661,-0.0622047 -0.162205,-0.12874 -0.266142,-0.195276zm-34.2854 -35.9941l-0.0122047 -0.0370079c-0.0177165,-0.00433071 -0.0129921,0.00787402 0.0122047,0.0370079zm18.1224 -183.864c0.176772,-0.0791339 0.349606,-0.168898 0.513386,-0.268898 0.229921,-0.149606 0.197638,-0.201575 -0.0307087,-0.065748 -0.159449,0.112992 -0.32126,0.225197 -0.482677,0.334646z"/>
     </g>
     <g>
      <path id="_92488144" fill="indigo" fill-opacity="0.490196" d="M117.732 252.105c-0.0240157,1.34252 -0.0405512,2.68543 -0.0417323,4.02795 0.0185039,18.887 2.3315,38.0492 9.43346,55.6717 7.02913,17.2657 18.9925,31.5957 35.0236,41.1807 6.05276,3.62598 12.5421,6.44606 19.2902,8.49803 6.55591,1.99331 13.3492,3.14685 20.2067,3.24252 6.6122,0.0724409 13.1972,-0.808268 19.5307,-2.72087 6.90157,-2.12244 13.3287,-5.54331 19.2764,-9.60433 5.30591,-3.65079 9.65787,-8.46811 12.9138,-14.0146 3.57205,-5.84882 6.05748,-12.3791 8.37165,-18.8028 1.26693,0.317323 4.55,-2.59016 7.16181,-1.90433 1.7748,5.56457 5.50787,10.9752 7.17913,17.1311 1.40039,4.8189 4.07362,9.4122 6.38622,13.828 2.48189,4.58386 4.95433,9.20827 6.97795,14.0173 0.613386,1.43071 1.20394,2.88701 1.59213,4.39764 0.156693,0.613386 0.283858,1.23543 0.317323,1.8689 0.0389764,0.854724 -0.0933071,1.70354 -0.516929,2.45787 -0.50748,0.68189 -0.98937,1.29488 -1.70669,1.7748 -0.683858,0.453937 -1.4685,0.737402 -2.28819,0.799606 -0.803937,0.0531496 -1.59921,-0.0984252 -2.33583,-0.420866 -0.640157,-0.287795 -1.21969,-0.685039 -1.74528,-1.14882 -2.59449,-2.08228 -5.08622,-4.29291 -7.49094,-6.59134 -7.13858,2.97756 -20.5122,8.58465 -31.9157,10.4929 -12.6772,2.13425 -25.5307,3.00197 -38.3807,2.82244 -15.4618,-0.247244 -30.8965,-2.06142 -45.8567,-6.04134 -23.961,-6.21299 -45.8114,-18.176 -64.7256,-34.0528 -9.85512,-8.24921 -18.8622,-17.5378 -26.2413,-28.085 -7.23583,-10.4035 -12.8079,-21.8961 -16.0551,-34.163 -1.95669,-6.97913 -2.84567,-14.2091 -2.91772,-21.4492 -0.0893701,-12.7835 2.44921,-25.3854 7.23858,-37.2248 5.3752,-13.2028 13.3024,-25.2272 22.6618,-35.9378 0.774016,-0.88189 12.2484,-13.8902 13.639,-12.5929 0.794094,1.10079 -11.0256,13.1921 -11.8496,14.1913 -8.89685,10.7374 -16.648,22.4598 -21.9055,35.4224 -4.63661,11.4925 -7.09488,23.7354 -6.95866,36.1409 0.0905512,6.97362 0.982677,13.9406 2.92283,20.6476 6.70315,24.2933 22.748,44.1827 42.0846,59.8362 18.6382,15.0445 40.0555,26.2661 63.4339,31.7681 1.96457,0.477165 3.9378,0.914567 5.91654,1.31654 -3.58819,-1.51024 -7.08819,-3.23189 -10.4752,-5.17126 -18.6717,-10.6909 -32.8091,-27.0102 -41.2445,-46.7575 -8.15197,-19.1811 -11.1374,-40.098 -11.4272,-60.8224 -0.223622,-14.9217 0.951969,-29.8291 2.77205,-44.6299 3.09882,-15.2602 7.75669,-30.2591 15.5772,-43.8043 1.3311,-2.2937 2.75197,-4.53425 4.26457,-6.71299 11.5807,-16.524 28.3413,-27.9331 47.4433,-34.0728 4.02402,-1.1378 8.08228,-2.14409 12.185,-2.95551 4.0378,-0.709055 8.12283,-1.04921 12.222,-1.06535 9.10197,-0.0181102 18.1614,1.49843 26.6555,4.80669 8.7685,3.36063 16.6799,8.59331 23.6343,14.8642 4.22283,3.80236 7.21693,8.75315 9.59646,13.8799 0.393307,-0.968504 0.792913,-1.93661 1.19606,-2.90039 1.6,-4.06575 3.00197,-8.69449 5.4374,-12.374 0.05,-0.127559 0.304724,-0.840551 0.649213,-1.7685 -1.30118,-0.0681102 -2.66378,-0.383071 -3.30394,-1.33268 -0.243307,-0.382283 -0.23189,-0.806693 -0.000787402,-1.19134 0.207087,-0.370866 0.593701,-0.667323 0.922441,-0.922835 1.09291,-0.861811 1.58071,-2.27795 2.13307,-3.50394 0.356299,-1.20315 0.92126,-2.46181 1.69016,-3.45591 0.662992,-0.655512 1.4126,-1.22283 2.24331,-1.65787 1.11772,-0.58189 2.34488,-0.942126 3.6126,-0.929528 1.14055,0.145669 2.14843,0.27126 3.17756,0.85 -0.393701,0.0114173 1.48465,1.13583 1.79134,1.50906 0.224803,0.275591 0.425984,0.570472 0.603543,0.878346 0.760236,1.37441 0.974016,2.9311 0.866929,4.48031 -0.609449,3.64331 -2.65394,7.17638 -4.36732,10.402 -4.28543,2.98937 -6.66102,6.49685 -8.57283,11.3606 -1.43465,3.46142 -2.61024,7.04409 -3.6622,10.6622 1.27638,2.97441 2.54449,5.95197 3.81693,8.92756 -3.36339,-1.73268 -3.5748,-3.58858 -5.00433,-4.66535 -0.46811,1.74291 -0.920866,3.48622 -1.37244,5.22205 -0.394094,0.908661 -0.852362,1.87717 -1.51496,2.62559 -0.138583,0.14685 -0.301575,0.294488 -0.489764,0.375197 -0.0307087,0.0224409 -0.0933071,0.0295276 -0.130709,0.0314961 -0.0531496,0.00433071 -0.108268,-0.0102362 -0.157087,-0.0291339 -1.40354,-2.61969 -2.77638,-5.27087 -4.15669,-7.92362 -0.436614,0.264173 -0.845669,0.57126 -1.2122,0.925591 -0.640945,0.637402 -0.655906,1.00866 -0.149606,0.0834646 0.255512,-0.713386 0.51378,-1.42638 0.772835,-2.13937 -1.27913,-2.45157 -2.5685,-4.90079 -3.89528,-7.32008 -1.13661,-2.19449 -2.37795,-4.33898 -3.84567,-6.3311 -1.31772,-1.78071 -2.82874,-3.45354 -4.64724,-4.73543 -6.23543,-4.73898 -13.198,-8.52677 -20.7087,-10.8028 -6.99921,-2.16929 -14.285,-3.01969 -21.6024,-2.74882 -3.17205,0.126772 -6.33346,0.462992 -9.44331,1.11102 -3.52598,0.814567 -7.02598,1.74764 -10.4933,2.78268 -15.6917,5.3189 -29.4937,14.7394 -39.1646,28.3122 -9.15748,13.0051 -14.3921,28.3539 -17.7071,43.7921 -1.71772,12.6106 -2.89882,25.3335 -3.14055,38.0626zm111.213 118.863c4.37008,-0.527953 8.72244,-1.20079 13.0504,-2.02913 11.372,-2.15157 22.4957,-5.48858 33.0827,-10.1795 0.744488,0.681102 2.18898,1.44685 3.89134,2.26772 -1.4126,-2.71299 -2.90984,-5.38268 -4.40906,-8.04213 -2.68661,-4.95079 -5.59764,-10.0035 -7.41339,-15.3606 -0.845669,-2.71929 -1.72677,-5.42913 -2.62126,-8.13346 0.362598,3.3752 0.485433,9.05787 -2.32598,13.9835 -3.8752,6.93268 -9.16654,12.9677 -15.6122,17.6173 -5.50551,3.91811 -11.3882,7.3252 -17.6425,9.87638zm33.5437 -47.5807l-0.038189 -0.114567c-0.0444882,-0.0106299 -0.026378,0.0318898 0.038189,0.114567zm9.78543 -185.653c0.398425,-0.0570866 1.57323,-0.255906 1.45748,-0.483465 -0.116142,-0.194094 -0.741339,0.114567 -0.867323,0.168504 -0.194094,0.107087 -0.391339,0.212992 -0.590157,0.314961z"/>
     </g>
    </g>
    <g>
     <g>
      <path id="_92547064" fill="indigo" fill-opacity="0.721569" d="M382.094 245.694c-0.0161417,0.0330709 -0.0322835,0.0665354 -0.0480315,0.0996063 -0.0929134,0.197638 -0.288189,1.10866 -0.288583,0.541339 -0.0385827,38.6791 -0.344488,77.3571 -0.796063,116.034 1.38425,0.272835 2.69803,0.687402 3.94882,1.38307 1.45394,0.815354 2.72638,1.92559 3.72677,3.25945 0.920866,1.24055 1.5937,2.64606 1.99843,4.13661 0.319291,1.19528 0.464961,2.42953 0.461417,3.66575 -0.00708661,1.41772 -0.226772,2.82874 -0.692126,4.16969 -0.643701,1.82835 -1.73228,3.47283 -3.18504,4.75906 -1.45433,1.27087 -3.2126,2.14291 -5.1,2.54803 -1.36772,0.28622 -2.77205,0.326378 -4.15748,0.157874 -7.64449,-1.50394 -15.4445,-2.08346 -23.2248,-2.2 -6.2874,-0.119291 -12.5823,0.169685 -18.8539,0.59685 -4.60551,0.332283 -9.29724,0.901181 -13.9228,0.799606 -1.30787,-0.00905512 -2.60906,-0.202756 -3.85236,-0.612205 -1.60394,-0.535433 -3.06772,-1.42638 -4.26417,-2.62283 -1.1878,-1.20118 -2.07047,-2.6689 -2.5937,-4.27402 -0.397638,-1.24213 -0.576378,-2.54055 -0.57126,-3.84331 0.0145669,-1.86142 0.393307,-3.70512 1.17283,-5.39882 0.81063,-1.73622 2.01693,-3.25079 3.5063,-4.45315 2.45669,-1.0689 4.69921,-2.37677 7.17323,-3.36102 0.927559,-48.8854 1.85079,-97.8055 4.19764,-146.646 0.0614173,-0.827559 -0.023622,-1.65866 -0.274409,-2.45039 -0.291339,-0.919291 -0.788189,-1.75669 -1.3874,-2.50787 -1.01063,-1.25945 -2.46457,-2.21299 -3.80945,-3.07795 -1.1937,-0.753543 -2.32008,-1.63268 -3.23386,-2.71496 -0.902756,-1.05551 -1.5748,-2.29488 -1.83425,-3.66732 0.194094,-1.02756 0.146063,-2.03898 0.398425,-3.08819 2.48701,0.377165 7.72362,-1.79291 11.6878,-1.16732 0.508268,0.0799213 4.41024,0.418898 4.43189,1.26024 -0.0444882,0.845669 -4.02323,0.827953 -4.50748,0.856299 -2.92283,0.0846457 -5.85236,0.0551181 -8.77362,-0.0732283 -0.057874,0.38937 0.203937,1.13071 0.163386,1.57205 0.146457,0.582677 0.669291,1.30945 1.12402,1.78937 0.713386,0.743307 1.5815,1.3248 2.47441,1.82913 1.77795,1.00433 3.55236,2.12165 5.00079,3.57638 0.998819,1.09528 1.83622,2.3315 2.39646,3.70787 0.532283,1.32087 0.791339,2.73189 0.781496,4.15512 -0.5,50.0169 -2.20787,100.025 -3.50906,150.026 -0.042126,0.0307087 -0.111811,0.0996063 -0.124016,0.109449 -0.640945,0.500787 -1.42874,0.824016 -2.18622,1.10039 -2.08661,0.655906 -4.09567,1.55827 -6.10433,2.41732 -1.17598,0.931496 -2.1248,1.60433 -2.78976,3.00079 -0.472047,1.00315 -0.692126,2.09803 -0.71063,3.20354 -0.00866142,0.746457 0.0787402,1.49252 0.300787,2.20669 0.262598,0.823622 0.703543,1.5811 1.30906,2.20039 0.611811,0.618504 1.36299,1.0748 2.18543,1.35512 0.715748,0.24252 1.46811,0.35 2.22205,0.361024 4.45197,0.262992 9.06614,-0.372441 13.5,-0.670079 6.41299,-0.391732 12.8512,-0.637008 19.276,-0.444488 7.8748,0.173228 15.7693,0.81063 23.4945,2.39646 0.974803,0.123622 1.92244,0.164567 2.89252,-0.0334646 1.09331,-0.231102 2.11535,-0.725197 2.96063,-1.45866 0.847638,-0.746063 1.47992,-1.70079 1.85787,-2.76339 0.296457,-0.84252 0.431496,-1.73071 0.440945,-2.62244 0.00708661,-0.818504 -0.0795276,-1.6378 -0.286614,-2.43031 -0.244882,-0.917323 -0.649606,-1.78465 -1.2122,-2.55039 -0.603543,-0.811024 -1.37087,-1.48543 -2.25039,-1.98386 -0.545669,-0.306693 -1.12717,-0.542913 -1.72795,-0.711811l-0.0015748 0.150787 -0.011811 -0.154724c-0.269291,-0.0751969 -0.541732,-0.13622 -0.817323,-0.185039 -1.25039,-0.196063 -2.50157,-0.395669 -3.75236,-0.590157 0.554724,-29.3126 1.0122,-58.6354 0.836614,-87.9543 -0.0637795,-10.6917 -0.216142,-21.3835 -0.493701,-32.072 -0.0818898,-0.948819 0.272441,-1.9252 0.635433,-2.78228 0.755118,-1.81693 1.87756,-3.4689 3.06654,-5.02598 0.229134,-0.293701 0.461024,-0.585433 0.699213,-0.874409l-0.481102 -1.2252c0.162205,0.353937 0.411417,0.682677 0.68937,0.976378 0.869685,-1.03307 1.81063,-2.01339 2.87283,-2.8437 0.575591,-0.424016 1.20748,-0.821654 1.90669,-1.00354 0.00669291,-0.00590551 -0.26811,-0.208661 -0.286614,-0.265354 -0.0929134,-0.382677 0.48622,0.549606 0.556693,0.693307 2.18858,4.40669 4.13976,8.93701 6.13228,13.4343 2.0811,3.11063 4.44055,5.72913 7.87559,7.38386 3.05906,1.45315 6.44843,1.92283 9.80827,1.67047 2.09134,-0.207874 4.16142,-0.630709 6.18898,-1.17874 2.42992,-0.646457 4.78661,-1.59528 7.02874,-2.72874 4.72087,-2.16575 8.29961,-5.93583 10.5587,-10.5732 2.53504,-5.70709 3.04016,-12.0933 5.85787,-17.6854 0.335433,-0.861417 0.702362,-1.71299 1.12126,-2.5374 7.40394,-14.5795 9.60433,-13.698 8.36181,3.75315 -0.504724,7.75079 -2.29843,15.5386 -6.29016,22.2697 -3.87913,6.35079 -9.66575,11.1811 -16.7043,13.6591 -2.7748,1.10512 -5.66024,1.94567 -8.60669,2.45394 -2.47598,0.474016 -4.99213,0.770472 -7.51457,0.800394 -4.72559,0.0330709 -9.40984,-0.994882 -13.5579,-3.29646 -4.14921,-2.33425 -7.48071,-5.80787 -9.92323,-9.87244 -1.05748,-2.67992 -2.14882,-5.34803 -3.23504,-8.0189 -0.5,0.69252 -0.958268,1.41417 -1.33228,2.17598zm-59.6264 118.767c-0.00511811,0.106299 -0.00629921,0.214567 -0.00590551,0.32126l0.00590551 -0.32126zm5.39055 -0.00275591l-0.00433071 0.180315c0.00748031,-0.0622047 0.0224409,-0.122441 0.0366142,-0.185827 0.00354331,-0.0149606 -0.0114173,-0.00984252 -0.0322835,0.00551181zm-0.00433071 0.180315l-0.00393701 0.144882c-0.00354331,-0.0496063 -0.0019685,-0.0980315 0.00393701,-0.144882zm48.4689 1.72283c-0.820079,-0.127165 -1.63937,-0.251969 -2.46024,-0.374803 0.969685,0.322835 1.69921,0.290945 2.25039,1.1685 0.131102,0.211417 0.173622,0.535827 0.19252,0.137402l0.0173228 -0.931102zm4.26299 -129.934l-0.0992126 -0.256299c0.0279528,0.0866142 0.0610236,0.172441 0.0992126,0.256299z"/>
     </g>
     <g>
      <path id="_92565272" fill="indigo" fill-opacity="0.721569" d="M383.45 267.276c0,31.135 -0.157087,62.2697 -0.394882,93.4039 0.99685,0.292913 1.96142,0.678346 2.89685,1.19724 1.71772,0.962205 3.21969,2.27126 4.40315,3.84488 1.08465,1.45709 1.87913,3.10866 2.3563,4.86024 0.37126,1.37953 0.542913,2.80394 0.541732,4.2315 -0.00629921,1.65827 -0.264567,3.30866 -0.80748,4.87756 -0.764173,2.17953 -2.06378,4.13976 -3.7937,5.67283 -1.7315,1.51732 -3.82835,2.55945 -6.07717,3.04449 -1.60157,0.337008 -3.24685,0.390945 -4.87047,0.194882 -7.56614,-1.44843 -15.2732,-1.99882 -22.9669,-2.08307 -6.22402,-0.0870079 -12.4547,0.229921 -18.6606,0.677953 -4.67441,0.351575 -9.42126,0.922835 -14.1161,0.87126 -1.56378,-0.00748031 -3.12126,-0.238976 -4.60866,-0.727165 -1.96654,-0.652756 -3.76102,-1.74646 -5.22913,-3.21024 -1.45866,-1.47087 -2.54606,-3.2689 -3.19016,-5.23661 -0.479528,-1.48701 -0.701181,-3.04173 -0.698425,-4.60236 0.0129921,-2.21299 0.463386,-4.40394 1.38583,-6.41929 0.965748,-2.08071 2.40472,-3.90039 4.18504,-5.34409 2.14843,-0.946457 4.11811,-2.07323 6.19724,-3.04921 0.641732,-48.352 1.47323,-96.702 2.53661,-145.046 0.0228346,-0.270866 0.015748,-0.546457 -0.0602362,-0.809055 -0.123228,-0.428346 -0.388189,-0.809055 -0.670472,-1.14764 -0.0925197,-0.115748 -2.01024,-1.54213 -2.84252,-2.04055 -1.62756,-0.957087 -3.15079,-2.09528 -4.43031,-3.49016 -1.50984,-1.65315 -2.6189,-3.63819 -3.11339,-5.82953 0.230709,-1.7748 -0.0866142,-3.27638 0.241339,-5.01024 1.34685,0.124409 11.3315,-6.30551 16.8217,-5.97559 3.18937,0.140157 6.37913,0.276378 9.57087,0.355906 5.94567,0.112598 11.8933,0.247638 17.8402,0.247638 3.8248,-0.0570866 7.64764,-0.266929 11.4437,-0.748819 3.62598,1.31535 5.71181,0.547638 8.19134,3.8689 1.30276,1.77402 1.92992,3.92126 1.91024,6.11299 -0.0700787,2.81024 -1.2126,5.61811 -2.17795,8.21811 -0.296457,0.794094 -1.51654,4.34528 -1.52756,4.03228 -0.19685,2.25512 0.332283,4.66063 0.730709,6.86339 0.0448819,0.130709 0.159449,0.404331 0.308268,0.735039 0.26378,-0.167717 0.530315,-0.330315 0.800394,-0.488189 -0.0417323,-4.23661 1.0937,-13.1984 12.2941,-19.4921 9.0626,-5.23228 19.4787,-7.13465 29.8539,-6.70906 2.64409,0.638976 5.4,1.21496 8.10669,1.54449 2.90354,0.150787 5.87874,-0.0185039 8.64055,-0.993701 2.84961,-0.935827 5.1874,-2.90669 7.14528,-5.1248 0.580315,-0.60748 1.20748,-1.15197 1.96969,-1.52126 0.661024,-0.329134 1.39134,-0.50748 2.13189,-0.459449 0.545276,0.0358268 1.09016,0.16378 1.57441,0.422441 0.474016,0.249213 0.879134,0.612992 1.17402,1.06063 0.283465,0.440945 0.464961,0.949213 0.548425,1.46575 0.0834646,0.561811 0.0767717,1.13622 0.0181102,1.70039 -0.126772,0.763386 -2.44961,6.44921 -3.81181,5.76063 -0.687795,-0.45 0.916929,-4.73031 0.542126,-5.76063l-0.0110236 -0.0629921c-0.111024,0.159055 -0.24685,0.307874 -0.350394,0.462992 -1.37126,2.0815 -2.99606,3.99961 -4.9122,5.56614 1.20315,0.0795276 2.57402,0.422441 4.14291,1.07441 12.687,4.73898 7.38268,13.113 6.10157,27.4496 -0.692913,7.93386 -2.54449,15.8941 -6.65591,22.7917 -4.04173,6.60433 -10.0673,11.6449 -17.389,14.2303 -2.83898,1.14094 -5.79882,2.00394 -8.81654,2.53386 -2.54606,0.494882 -5.13465,0.80315 -7.72953,0.841732 -4.97008,0.0444882 -9.90315,-1.0315 -14.2693,-3.44646 -4.37638,-2.45118 -7.90157,-6.09488 -10.4854,-10.3728 -0.643307,-1.61969 -1.30118,-3.23465 -1.96299,-4.84882 0.0185039,6.61142 0.0251969,13.2228 0.0251969,19.8343zm-63.5126 97.2118c-0.00314961,0.0976378 -0.00393701,0.196457 -0.00393701,0.294094l0.00393701 -0.294094zm125.717 -173.761c-0.0346457,-0.106299 -0.0783465,-0.209055 -0.138976,-0.299606 -0.0307087,-0.0480315 -0.151969,-0.170472 -0.120472,-0.0283465 0.0338583,0.127165 0.144882,0.234646 0.243701,0.314567l0.015748 0.0133858zm-11.2614 9.86102c-2.73701,0.980709 -5.66142,1.42205 -8.5622,1.5437 -3.02835,0.18189 -6.10591,-0.301181 -9.0815,-0.805118 -8.0752,0.379528 -16.5354,2.99213 -23.2035,7.59409 -3.08543,2.11929 -5.83858,4.65039 -8.33031,7.43071 0.277559,-0.0125984 0.556693,-0.0204724 0.835827,-0.0208661 3.79213,0.0188976 7.46614,1.2878 10.4276,3.66457 2.5378,2.06929 4.39331,4.81063 5.57677,7.84961 1.55236,4.22441 3.15394,8.43268 4.7563,12.6386l1.00315 1.13425c0.664961,0.448425 1.54961,0.52126 2.32598,0.544488 1.26378,0.0389764 2.53031,-0.109449 3.77638,-0.307087 1.6752,-0.216142 3.30866,-0.652362 4.89961,-1.2122 2.5878,-0.75748 4.6126,-2.16772 6.17717,-4.37008 2.76063,-3.84528 4.00236,-8.69252 4.84134,-13.2803 1.38898,-8.62244 1.75472,-17.6421 4.55748,-22.4043zm-66.6335 25.3606c-2.17559,0.458661 -4.17323,0.392126 -5.63386,-3.14055 -0.790157,-3.50197 -1.69803,-6.97638 -1.80276,-10.5898 -0.019685,-2.50236 0.744488,-5.00039 1.53898,-7.38543 -1.78465,0.40315 -3.81732,0.797638 -5.32795,0.894488 -6.03819,0.448031 -12.1067,0.542913 -18.1594,0.63937 0.0909449,0.194094 0.179921,0.388976 0.264567,0.587008 1.00039,2.3685 1.5189,4.90906 1.54961,7.47913 0.894488,49.6941 1.59213,99.3925 2.09252,149.093 4.14685,-0.275591 8.30039,-0.459843 12.4551,-0.501181 1.34488,-0.00787402 2.68976,-0.00472441 4.03543,0.0137795l-0.322047 -95.7622c0,-6.97992 0.00669291,-13.9602 0.0204724,-20.9402 0.0145669,-3.64764 0.974803,-7.20157 2.52638,-10.4866 1.4874,-3.11614 3.46142,-5.9689 5.6563,-8.62559 0.362598,-0.430709 0.730709,-0.855512 1.10669,-1.2748zm-48.8413 -19.7366l-0.0393701 -0.0019685c-0.0023622,0.0161417 0.0114173,0.015748 0.0393701,0.0019685zm60.2465 30.8122l-0.120472 -0.30315c0.0362205,0.102362 0.0759843,0.203937 0.120472,0.30315z"/>
     </g>
     <g>
      <path id="_92662160" fill="indigo" fill-rule="nonzero" fill-opacity="0.490196" d="M377.164 297.41c0,22.9445 -0.244488,45.8886 -0.607874,68.8299 1.07362,0.121654 2.51339,0.287402 3.34606,0.414567 1.00827,0.175984 1.96457,0.455906 2.8626,0.959449 0.911811,0.514961 1.70866,1.21339 2.33504,2.05276 0.585433,0.794882 1.00866,1.69409 1.26378,2.64685 0.214173,0.816142 0.305118,1.65787 0.299606,2.50079 -0.00905512,0.923622 -0.14685,1.84252 -0.452756,2.71575 -0.393701,1.10748 -1.04921,2.10433 -1.93228,2.88268 -0.883858,0.767717 -1.94843,1.28661 -3.09252,1.52992 -0.887008,0.183071 -1.79803,0.198425 -2.69528,0.0854331 -7.81339,-1.57835 -15.7929,-2.22283 -23.7531,-2.38189 -6.41496,-0.172835 -12.8398,0.0795276 -19.2421,0.477165 -4.45118,0.30315 -9.06496,0.927165 -13.535,0.690157 -0.796457,-0.0110236 -1.58976,-0.125197 -2.34606,-0.379528 -0.881496,-0.299606 -1.68858,-0.788189 -2.34488,-1.45079 -0.649606,-0.664567 -1.12559,-1.4748 -1.40866,-2.35866 -0.235433,-0.754724 -0.331102,-1.54331 -0.322441,-2.33228 0.0185039,-1.16378 0.248819,-2.31654 0.744882,-3.37323 0.5,-1.05236 1.24409,-1.96457 2.15512,-2.68819 2.37323,-1.01732 4.62205,-2.2189 7.10433,-3.00276 0.659449,-0.240551 1.33543,-0.538583 1.90039,-0.961811 1.29961,-49.9417 2.79213,-99.8819 3.74094,-149.832 0.0220472,-1.40197 -0.219291,-2.79449 -0.729528,-4.10118 -0.537402,-1.36181 -1.34449,-2.59488 -2.31575,-3.68583 -0.0811024,-0.092126 -0.173228,-0.177559 -0.26063,-0.26378 -1.3815,-1.35039 -3.02795,-2.4185 -4.69213,-3.38425 -0.883858,-0.514567 -1.74488,-1.10591 -2.44055,-1.8626l-0.0311024 -0.0334646c-0.46063,-0.0181102 -0.921654,-0.0377953 -1.38228,-0.0594488 0.167323,-0.0759843 0.499213,-0.3 0.893701,-0.562205 -0.258268,-0.386614 -0.457087,-0.810236 -0.561024,-1.2685 0.0311024,-0.261417 0.217717,-1.21102 0.304724,-1.72244 1.82283,0.125984 5.58268,0.755118 8.21063,0.844488 3.29173,0.046063 6.58386,0.0732283 9.87559,0.0374016 6.04409,-0.0543307 12.1142,-0.0944882 18.1437,-0.566142 4.07362,-0.269291 8.13543,-0.73622 12.148,-1.49528 0.843307,0.266142 1.61378,0.619291 2.18583,1.3252 0.530709,0.663386 0.754724,1.49409 0.777953,2.33307 0.116535,2.07874 -0.834252,4.37835 -1.47008,6.30906 -0.577953,1.75394 -1.63071,4.03425 -1.47795,5.93898 0.121654,2.64685 0.693701,5.28346 1.23504,7.86929 0.535433,1.37559 1.16732,2.71732 1.81063,4.04528 0.229528,-0.320079 -0.469685,-3.19803 0.909843,-2.31496 0.533071,0.39252 -0.815748,2.74094 -0.985039,3.10157 -1.14961,-1.44055 -2.67874,-1.92205 -3.78071,-4.19724 -0.754724,-2.77992 -1.52047,-5.62047 -1.74567,-8.50276 -0.143307,-2.27126 0.823622,-4.7126 1.50197,-6.83031 0.206299,-0.644488 1.89843,-4.81457 1.26024,-5.41772 -0.0137795,-0.227165 -0.046063,-0.514173 -0.23189,-0.672835 -0.217717,-0.184646 -0.511811,-0.288583 -0.781102,-0.365748 -1.8185,0.348031 -7.69409,1.41535 -11.2394,1.65669 -6.0685,0.480709 -12.1748,0.555512 -18.2587,0.646457 -3.30669,0.0625984 -6.61457,0.0688976 -9.92165,0.0688976l-1.38465 -0.0287402c1.36339,0.849213 2.66969,1.79488 3.82283,2.90984 1.3252,1.4122 2.44134,2.98819 3.20512,4.7748 0.732283,1.73386 1.11063,3.59213 1.13307,5.47362 0.701575,50.1146 1.10433,100.234 1.65551,150.351 0.0011811,1.24961 -0.295276,2.48031 -0.848819,3.59961 -0.25,0.498819 -0.548425,0.969685 -0.884252,1.41142 6.61732,-0.608268 13.2551,-1.07598 19.9008,-1.18858 3.13307,-0.034252 6.2689,-0.00314961 9.40236,0.119291 -0.0531496,-0.474409 -0.080315,-0.951575 -0.0850394,-1.4311l-2.88898 -117.343c-0.0444882,-1.20512 -0.0885827,-2.41102 -0.13189,-3.61654 -0.0523622,-3.28346 0.769291,-6.49213 2.10276,-9.47598 1.32638,-2.98583 3.13425,-5.72835 5.15118,-8.28937 2.12638,-2.64173 4.50669,-5.10709 7.31457,-7.02992 3.1063,-2.08465 6.68386,-3.40709 10.4504,-3.45591 3.40354,-0.00984252 6.70118,1.10512 9.3748,3.21693 2.33346,1.86732 4.03504,4.36378 5.14409,7.12323 1.75866,4.17913 3.40472,8.40866 5.06102,12.6295l1.60079 1.59055c0.873622,0.497638 1.92087,0.61811 2.90866,0.637795 1.33031,0.0275591 2.66102,-0.123228 3.97323,-0.330315 1.74488,-0.221654 3.45039,-0.666142 5.11339,-1.2315 2.84921,-0.792913 5.16693,-2.3311 6.97795,-4.67165 3.1378,-3.93228 4.77913,-8.9374 6.03976,-13.7378 0.220079,-1.04528 6.23189,-28.2472 12.1634,-21.3315 2.03307,2.38071 5.49409,3.26929 3.83543,7.11457 -2.37402,5.39055 -6.04488,10.0087 -8.42205,15.2217 -3.09213,5.26811 -3.03425,12.2106 -5.75079,17.774 -2.22087,4.22677 -5.5063,7.73071 -9.77441,9.92953 -0.329528,0.16811 -0.662205,0.331102 -0.998425,0.485039 -2.24606,1.14449 -4.57244,2.15315 -6.98661,2.88701 -2.01693,0.611024 -4.07835,1.10394 -6.16969,1.37559 -3.42756,0.340945 -6.90197,-0.0944882 -10.0413,-1.55512 -3.23425,-1.52756 -5.84961,-4.03898 -7.82244,-6.99646 -2.08268,-4.71732 -4.14567,-9.4563 -6.35866,-14.1146 -0.0133858,-0.0279528 -0.0433071,-0.0708661 -0.0791339,-0.120079 -0.550787,0.187795 -1.05236,0.494882 -1.52441,0.832677 -1.44921,1.09173 -2.66811,2.47402 -3.7937,3.88701 -1.18661,1.52047 -2.30827,3.14173 -3.07677,4.9189 -0.366142,0.83622 -0.724016,1.78504 -0.66811,2.71575 0.306299,17.0224 0.386614,34.05 0.386614,51.0748zm-49.7299 67.1878c-0.00669291,0.0614173 -0.00748031,0.124016 -0.00472441,0.186614l0.00472441 -0.186614zm-8.10236 -163.554l-0.116142 -0.00590551c-0.00669291,0.0440945 0.0354331,0.042126 0.116142,0.00590551zm66.2382 32.5969c-0.0433071,-0.0511811 -0.065748,-0.0759843 -0.0452756,-0.0476378 0.0129921,0.0169291 0.0279528,0.0334646 0.0452756,0.0476378z"/>
     </g>
    </g>
   </g>
  </g>
  <path fill="none" fill-rule="nonzero" d="M248.359 132.435c2.2748,0.933071 4.49094,1.74961 6.70709,2.50787 2.27441,0.758268 4.43228,1.10827 6.47362,1.10827 1.28307,0 2.62441,-0.233465 4.02402,-0.7 1.39961,-0.466535 2.74134,-1.16654 3.96575,-2.09961 1.16654,-0.933071 2.09961,-1.39961 2.62441,-1.39961 0.933465,0 1.4,0.758268 1.4,2.27441 0,1.69134 -0.758268,4.84055 -2.21614,9.5063 -0.583465,1.69134 -2.04134,5.94882 -4.37441,12.7142 -2.33268,6.82323 -4.49055,13.472 -6.53189,20.0039 -1.34134,2.79921 -2.56614,3.96575 -3.67402,3.38268 -2.79961,-5.94882 -5.42402,-11.7224 -7.99016,-17.2047 -2.50787,-5.54055 -5.13228,-9.44803 -7.9315,-11.8976 -6.53189,-5.77362 -13.3555,-10.0311 -20.4705,-12.7138 -7.05709,-2.74094 -14.6386,-4.08268 -22.687,-4.08268 -3.73268,0 -7.11496,0.291732 -10.2063,0.816535 -3.09094,0.583465 -6.76496,1.4 -11.0224,2.56614 -18.1378,5.59882 -32.3098,15.4551 -42.5744,29.6272 -8.57323,11.7807 -14.9299,27.061 -19.0126,45.8984 -2.27441,16.2717 -3.38268,30.735 -3.38268,43.3909 0,22.3949 3.38268,41.7575 10.0898,57.9709 7.81496,19.0126 20.4122,33.5929 37.7917,43.6823 6.35709,3.73268 13.1807,6.64843 20.5874,8.8063 7.34843,2.15787 14.5803,3.20787 21.6953,3.20787 7.23189,0 14.2303,-1.05 20.9957,-3.20787 6.70669,-2.15787 13.5303,-5.65709 20.4122,-10.4976 5.77362,-4.08228 10.4394,-9.3315 13.9969,-15.6299 2.6248,-4.49094 5.42402,-11.0228 8.39843,-19.5961 0.758268,0.175197 1.5748,0.35 2.50787,0.583465 2.27441,6.88189 3.79055,11.6642 4.60709,14.4051 0.874803,2.68268 3.14961,7.46496 6.88189,14.4051 6.53189,11.7228 9.44803,18.2547 8.68976,19.5961 -0.933071,1.28307 -2.04094,1.39961 -3.38228,0.233071 -2.6248,-2.04094 -5.13228,-4.19882 -7.52362,-6.41496 -10.6728,4.66535 -22.1035,8.1063 -34.2925,10.3224 -12.2476,2.2748 -24.9031,3.38268 -37.9669,3.38268 -16.2134,0 -31.435,-1.74961 -45.6071,-5.30709 -23.3283,-5.59882 -44.9654,-16.6217 -64.9693,-33.0681 -22.5701,-18.4291 -36.8587,-39.1913 -42.8075,-62.1114 -1.86614,-6.70709 -2.79961,-13.939 -2.79961,-21.5787 0,-25.3697 10.3228,-49.5728 30.9102,-72.6094 20.6457,-23.037 47.9398,-39.8335 81.8823,-50.2728 14.9303,-4.49055 30.7937,-6.70669 47.5902,-6.70669 5.59882,0 10.4394,0.233071 14.5799,0.699606 4.08268,0.466535 8.92323,1.45827 14.4055,3.09094 5.48189,1.5748 8.92283,2.50787 10.2059,2.91614zm197.591 64.9697c-1.63307,2.97441 -3.49921,11.9555 -5.42402,27.0024 -1.98268,14.9886 -7.81496,24.0866 -17.4961,27.2941 -2.44961,0.933071 -4.78228,1.5748 -6.99882,1.9248 -2.27441,0.408268 -4.19882,0.583071 -5.89016,0.583071 -6.35709,0 -11.0811,-2.68268 -14.2886,-8.10669 -2.62441,-6.76496 -4.37402,-11.3142 -5.30748,-13.7638 -0.933071,-2.39094 -2.44921,-3.61575 -4.49055,-3.61575 -2.97441,0 -6.24016,2.15787 -9.79803,6.41535 -3.55748,4.31575 -5.30709,8.04843 -5.30709,11.1976l0 120.957c0,2.04134 0.758268,3.32441 2.21614,3.90748 2.62441,0.35 4.66575,0.641339 6.06535,0.816535 1.39961,0.233071 2.09961,1.16654 2.09961,2.79921 0,1.51654 -0.758268,2.15787 -2.21614,1.98307 -7.11496,-1.28307 -15.2217,-1.9248 -24.378,-1.9248 -5.24921,0 -11.7811,0.291732 -19.5961,0.933465 -7.87323,0.641339 -12.2472,0.991339 -13.1803,0.991339 -1.69134,0 -2.50787,-0.816535 -2.50787,-2.50787 0,-1.34134 0.466535,-2.33268 1.39961,-3.09094 2.44961,-1.10827 4.37402,-1.98307 5.89055,-2.50787 2.79921,-1.10787 4.19882,-2.44961 4.19882,-3.90748l0 -150.351c0,-2.79921 -1.04961,-5.30709 -3.09094,-7.52323 -1.10787,-1.10827 -2.74094,-2.2748 -4.89882,-3.49921 -2.15787,-1.2248 -3.44094,-2.56614 -3.79094,-4.08268 0.0582677,-0.524803 0.175197,-1.2248 0.291732,-1.92441 2.68268,0.174803 5.59882,0.291339 8.74803,0.408268 3.14921,0.0582677 6.41535,0.116535 9.8563,0.116535 7.98976,0 14.0551,-0.0582677 18.1378,-0.233465 4.14094,-0.174803 8.16496,-0.524803 12.189,-1.16614 1.69134,0.583071 2.56614,1.69134 2.56614,3.44094 0,0.933071 -0.524803,2.97402 -1.63307,6.12362 -1.10787,3.14921 -1.69134,5.19055 -1.69134,6.12362 0,1.74961 0.35,4.37402 1.10827,8.04843 0.583071,1.51614 1.2248,2.91575 1.98307,4.25709 6.12362,-9.5063 12.6555,-16.4465 19.5957,-20.7039 7.64016,-4.84055 16.7965,-7.28976 27.4106,-7.28976 3.73268,0.757874 6.41535,1.10787 8.10669,1.10787 3.73268,0 6.94016,-0.583071 9.62283,-1.80787 2.74134,-1.16654 5.19055,-3.26614 7.46535,-6.29882 0.933071,-1.10787 1.86614,-1.63268 2.79921,-1.63268 1.63307,0 2.50787,1.10787 2.50787,3.32402 0,1.51654 -0.758268,3.55787 -2.27441,6.18228z"/>
 </g>
</svg>
