<?xml version="1.0" encoding="UTF-8"?>
<!DOCTYPE svg PUBLIC "-//W3C//DTD SVG 1.1//EN" "http://www.w3.org/Graphics/SVG/1.1/DTD/svg11.dtd">
<!-- Creator: CorelDRAW -->
<svg xmlns="http://www.w3.org/2000/svg" xml:space="preserve" width="100%" height="100%" shape-rendering="geometricPrecision" text-rendering="geometricPrecision" image-rendering="optimizeQuality" fill-rule="evenodd" clip-rule="evenodd"
viewBox="0 0 500 500"
 xmlns:xlink="http://www.w3.org/1999/xlink">
 <defs>
   <radialGradient id="id0" gradientUnits="userSpaceOnUse" cx="188.267" cy="157.508" r="199.257" fx="188.267" fy="157.508">
    <stop offset="0" stop-color="white"/>
    <stop offset="1" stop-color="#B6DDC7"/>
   </radialGradient>
   <linearGradient id="id1" gradientUnits="userSpaceOnUse" x1="220.556" y1="162.625" x2="451.07" y2="-119.498">
    <stop offset="0" stop-color="#96AEBE"/>
    <stop offset="0.301961" stop-color="#CAD6DE"/>
    <stop offset="1" stop-color="white"/>
   </linearGradient>
   <radialGradient id="id2" gradientUnits="userSpaceOnUse" cx="224.315" cy="68.8035" r="88.5787" fx="224.315" fy="68.8035">
    <stop offset="0" stop-color="white"/>
    <stop offset="1" stop-color="#7BC4A0"/>
   </radialGradient>
   <radialGradient id="id3" gradientUnits="userSpaceOnUse" cx="194.483" cy="68.5642" r="92.2039" fx="194.483" fy="68.5642">
    <stop offset="0" stop-color="white"/>
    <stop offset="1" stop-color="#B6DDC7"/>
   </radialGradient>
   <radialGradient id="id4" gradientUnits="userSpaceOnUse" cx="283.634" cy="444.413" r="151.184" fx="283.634" fy="444.413">
    <stop offset="0" stop-color="white"/>
    <stop offset="0.211765" stop-color="#BAE2F7"/>
    <stop offset="1" stop-color="#75C5F0"/>
   </radialGradient>
 </defs>
 <g id="Layer_x0020_1">
  <metadata id="CorelCorpID_0Corel-Layer"/>
  <path fill="url(#id0)" stroke="#71625B" stroke-width="11.111" d="M406.044 121.068c-50.4413,0.0019685 -102.595,-0.0437008 -156.418,-0.117717 -55.6571,-0.0759843 -113.352,-0.182677 -173.042,-0.26378 -0.448425,-0.000787402 -0.886614,0.034252 -1.3248,0.073622 -0.805118,0.295669 -1.58976,0.461417 -2.48543,0.45315 -9.21496,2.73465 -14.0862,15.4685 -11.2055,30.2205 11.9681,61.2807 22.7173,116.247 32.3921,165.82 8.78228,45.0004 16.7685,85.9126 24.0776,123.341 1.75945,9.00906 9.74528,15.552 17.7898,14.7756 47.5008,-4.58346 93.711,-9.04252 138.629,-13.3772 43.7429,-4.22165 86.4012,-8.3315 127.913,-12.339 6.81063,-0.657087 13.4882,-7.97441 14.8232,-16.485 5.51457,-35.1457 11.5,-73.326 18.0098,-114.816 7.11575,-45.3512 14.9217,-95.1161 23.5252,-149.963 2.32402,-14.8142 -3.22008,-27.2921 -12.387,-27.2909 -13.3642,0.0019685 -26.7693,0.00708661 -40.2969,-0.0307087z"/>
  <path fill="url(#id1)" stroke="#71625B" stroke-width="11.111" d="M384.123 121.601c-27.0827,-0.0318898 -54.6547,-0.046063 -82.6732,-0.0673228 -28.5492,-0.0216535 -57.5457,-0.0519685 -87.1126,-0.105906 20.6213,-0.484252 3.01496,-94.4835 34.7642,-93.5555 35.976,1.05157 71.2039,2.08071 105.687,3.00709 29.1083,0.852756 10.5528,90.1953 29.335,90.7217z"/>
  <path fill="url(#id2)" stroke="#969594" stroke-width="11.111" d="M319.98 121.531c-28.2638,-0.000787402 -56.9752,-0.0240157 -86.1756,-0.0555118 -29.7709,-0.0326772 -60.0709,-0.0740157 -90.9815,-0.13937 21.5252,-0.527953 -2.57559,-96.6441 30.6264,-95.6736 37.6504,1.10039 74.4634,2.17598 110.483,3.14606 30.4736,0.890551 16.4209,92.1811 36.0476,92.7224z"/>
  <path fill="url(#id3)" stroke="#838281" stroke-width="11.111" d="M257.181 121.474c-29.4043,-0.0102362 -59.2571,-0.0433071 -89.6787,-0.0858268 -30.9925,-0.0429134 -62.5551,-0.0968504 -94.7287,-0.175197 22.4307,-0.527953 -8.26732,-98.7343 26.4323,-97.7213 39.2791,1.14843 77.6776,2.27047 115.284,3.3689 31.7929,0.929528 22.261,94.0571 42.6913,94.6134z"/>
  <path fill="url(#id4)" fill-rule="nonzero" stroke="mediumslateblue" stroke-width="11.111" d="M321.322 154.141c0.0307087,18.4264 0.0452756,39.1909 0.140551,62.8189 0.108661,27.0756 0.283071,58.3677 0.551969,95.1736 14.6039,0.388189 29.385,0.751181 44.2508,1.15197 14.9811,0.403937 30.1665,0.817323 45.3811,1.2311 -23.3622,19.3713 -48.489,40.1602 -75.3575,62.661 -29.0142,24.2969 -60.2902,50.7118 -94.2516,79.3307 -26.2378,-32.0697 -49.5764,-60.689 -70.3791,-86.3717 -18.6874,-23.072 -35.5906,-43.9815 -50.9492,-63.0378 12.9472,0.319685 25.9839,0.612205 39.1055,0.940551 13.2661,0.33189 26.5925,0.667323 40.065,0.978346 9.08425,-35.4075 16.9157,-65.726 23.7756,-92.0417 5.99803,-23.0098 11.3224,-43.3512 16.0819,-61.4169 13.3579,-0.231496 26.8134,-0.464961 40.3654,-0.7 13.6102,-0.236614 27.3957,-0.476772 41.2197,-0.71811zm0.140551 62.8189m44.8028 96.3256m-29.9764 63.8921m-164.631 -7.04094m-11.8437 -62.0972m63.8406 -91.0634m56.4472 -62.1169"/>
 </g>
</svg>
