/* XPM */
static char * objects_icon_16x16[] = {
"16 16 126 2",
"  	c #5A0000",
". 	c #5B0707",
"+ 	c #626262",
"@ 	c #4D0F44",
"# 	c #57577E",
"$ 	c #5C5C72",
"% 	c #616166",
"& 	c #590105",
"* 	c #2525FB",
"= 	c #2525FD",
"- 	c #3333D9",
"; 	c #55041A",
"> 	c #3131DF",
", 	c #5F6963",
"' 	c #607F6C",
") 	c #617569",
"! 	c #500832",
"~ 	c #2F3DE3",
"{ 	c #6CD797",
"] 	c #83F6B7",
"^ 	c #85F5B9",
"/ 	c #6CB58A",
"( 	c #626362",
"_ 	c #5B0101",
": 	c #8367A6",
"< 	c #344BEC",
"[ 	c #8AFBC0",
"} 	c #C4FDEF",
"| 	c #D5FDF7",
"1 	c #95FBCB",
"2 	c #658A74",
"3 	c #9B6C6C",
"4 	c #A4A4CF",
"5 	c #04049E",
"6 	c #0707A5",
"7 	c #0909AC",
"8 	c #0C0CB3",
"9 	c #2D4FB9",
"0 	c #94FDCC",
"a 	c #E4FDFB",
"b 	c #F5FDFD",
"c 	c #A9FDDC",
"d 	c #69A381",
"e 	c #8E1653",
"f 	c #E2BBE1",
"g 	c #C2C2D7",
"h 	c #000091",
"i 	c #010190",
"j 	c #55A685",
"k 	c #84F9B9",
"l 	c #ADFDDD",
"m 	c #B8FDE4",
"n 	c #8AF7BF",
"o 	c #638470",
"p 	c #A1016F",
"q 	c #FD03FD",
"r 	c #F104F1",
"s 	c #903C93",
"t 	c #140088",
"u 	c #1B1B86",
"v 	c #929253",
"w 	c #F2F72D",
"x 	c #AAEC6C",
"y 	c #82EEA2",
"z 	c #77E9A8",
"A 	c #92D5AD",
"B 	c #A3A4A3",
"C 	c #445844",
"D 	c #5D0505",
"E 	c #E70CDB",
"F 	c #FC03FC",
"G 	c #AB00AB",
"H 	c #9D1A9F",
"I 	c #9FE0A8",
"J 	c #F7F729",
"K 	c #FDFD25",
"L 	c #D2E08B",
"M 	c #E3E3E3",
"N 	c #BDC7BD",
"O 	c #023E02",
"P 	c #A88181",
"Q 	c #F548F5",
"R 	c #E102E1",
"S 	c #BC00BC",
"T 	c #9228B7",
"U 	c #4AF8F8",
"V 	c #7FDC6F",
"W 	c #FBFB36",
"X 	c #E5E5D6",
"Y 	c #4D754D",
"Z 	c #003D00",
"` 	c #E4D9E4",
" .	c #E6A4B4",
"..	c #D18162",
"+.	c #D57C6B",
"@.	c #7EC280",
"#.	c #6CFDFD",
"$.	c #19F1F1",
"%.	c #67C56D",
"&.	c #D7DE55",
"*.	c #E4E4D9",
"=.	c #FBFB31",
"-.	c #46D79B",
";.	c #5CFDFD",
">.	c #61FDFD",
",.	c #0BE5DC",
"'.	c #F9FC27",
").	c #FBFC25",
"!.	c #396808",
"~.	c #4D4D4D",
"{.	c #D2D2D2",
"].	c #F1F17E",
"^.	c #70EE8E",
"/.	c #4AFDFC",
"(.	c #ACFDE3",
"_.	c #B3FD68",
":.	c #CED91E",
"<.	c #000000",
"[.	c #161616",
"}.	c #A0A0A0",
"|.	c #E6E6D0",
"1.	c #FCFC2A",
"2.	c #F9FD2A",
"3.	c #ADC019",
"4.	c #595959",
"5.	c #E8E863",
"          . + + + + + + + + + + ",
"          @ # $ % + + + + + + + ",
"        & * = = = - + + + + + + ",
"        ; = = = = > , ' ) + + + ",
"        ! = = = = ~ { ] ^ / ( + ",
"      _ : = = = = < [ } | 1 2 + ",
"      3 4 5 6 7 8 9 0 a b c d + ",
"    e f g h h h i j k l m n o + ",
"  p q r s t h u v w x y z A B C ",
"D E q F G H I J K K K K L M N O ",
"P Q q R S T U V K K K K W X Y Z ",
"M `  ...+.@.#.$.%.K K K K &.O Z ",
"M M *.=.K -.;.>.,.'.K K K ).!.Z ",
"~.{.M ].K ^./.(._.K K K K K :.Z ",
"<.[.}.|.1.K 2.K K K K K K K 3.Z ",
"<.<.<.4.5.K K K K K K K K K !.Z "};
