<?xml version="1.0" encoding="UTF-8"?>
<!DOCTYPE svg PUBLIC "-//W3C//DTD SVG 1.1//EN" "http://www.w3.org/Graphics/SVG/1.1/DTD/svg11.dtd">
<!-- Creator: CorelDRAW -->
<svg xmlns="http://www.w3.org/2000/svg" xml:space="preserve" width="5in" height="5in" shape-rendering="geometricPrecision" text-rendering="geometricPrecision" image-rendering="optimizeQuality" fill-rule="evenodd" clip-rule="evenodd"
viewBox="0 0 500 500"
 xmlns:xlink="http://www.w3.org/1999/xlink">
 <defs>
   <radialGradient id="id0" gradientUnits="userSpaceOnUse" cx="196.899" cy="199.665" r="205.157" fx="196.899" fy="199.665">
    <stop offset="0" stop-color="white"/>
    <stop offset="1" stop-color="deepskyblue"/>
   </radialGradient>
 </defs>
 <g id="Layer_x0020_1">
  <metadata id="CorelCorpID_0Corel-Layer"/>
  <path fill="url(#id0)" stroke="#42B4B4" stroke-width="0.3" d="M50.0043 278.211l82.5185 0 0 28.4547 82.5189 -56.9094 -82.5189 -56.9094 0 28.4547 -82.5185 0 0 56.9094zm205.16 -47.8827c11.0437,0 20.0004,8.9563 20.0004,20 0,11.0437 -8.95669,20 -20.0004,20 -11.0433,0 -19.9996,-8.9563 -19.9996,-20 0,-11.0437 8.9563,-20 19.9996,-20zm28.1591 223.731l0 -82.5185 28.4547 0 -56.9094 -82.5189 -56.9094 82.5189 28.4547 0 0 82.5185 56.9094 0zm174.721 -232.189l-82.5185 0 0 -28.4547 -82.5189 56.9094 82.5189 56.9094 0 -28.4547 82.5185 0 0 -56.9094zm-232.192 -178.125l0 82.5185 -28.4547 0 56.9094 82.5189 56.9094 -82.5189 -28.4547 0 0 -82.5185 -56.9094 0z"/>
 </g>
</svg>
