<?xml version="1.0" encoding="UTF-8"?>
<!DOCTYPE svg PUBLIC "-//W3C//DTD SVG 1.1//EN" "http://www.w3.org/Graphics/SVG/1.1/DTD/svg11.dtd">
<!-- Creator: CorelDRAW -->
<svg xmlns="http://www.w3.org/2000/svg" xml:space="preserve" width="100%" height="100%" shape-rendering="geometricPrecision" text-rendering="geometricPrecision" image-rendering="optimizeQuality" fill-rule="evenodd" clip-rule="evenodd"
viewBox="0 0 500 500"
 xmlns:xlink="http://www.w3.org/1999/xlink">
 <defs>
   <radialGradient id="id0" gradientUnits="userSpaceOnUse" cx="188.267" cy="156.894" r="199.257" fx="188.267" fy="156.894">
    <stop offset="0" stop-color="white"/>
    <stop offset="1" stop-color="#B6DDC7"/>
   </radialGradient>
   <linearGradient id="id1" gradientUnits="userSpaceOnUse" x1="220.556" y1="162.011" x2="451.07" y2="-120.112">
    <stop offset="0" stop-color="#96AEBE"/>
    <stop offset="0.301961" stop-color="#CAD6DE"/>
    <stop offset="1" stop-color="white"/>
   </linearGradient>
   <radialGradient id="id2" gradientUnits="userSpaceOnUse" cx="224.315" cy="68.1894" r="88.5787" fx="224.315" fy="68.1894">
    <stop offset="0" stop-color="white"/>
    <stop offset="1" stop-color="#7BC4A0"/>
   </radialGradient>
   <radialGradient id="id3" gradientUnits="userSpaceOnUse" cx="194.483" cy="67.95" r="92.2039" fx="194.483" fy="67.95">
    <stop offset="0" stop-color="white"/>
    <stop offset="1" stop-color="#B6DDC7"/>
   </radialGradient>
    <clipPath id="id4">
     <path d="M152.338 157.346l264.782 0 0 271.561 -264.782 0 0 -271.561z"/>
    </clipPath>
 </defs>
 <g id="Layer_x0020_1">
  <metadata id="CorelCorpID_0Corel-Layer"/>
  <path fill="url(#id0)" stroke="#71625B" stroke-width="11.111" d="M406.044 120.454c-50.4413,0.0019685 -102.595,-0.0440945 -156.418,-0.117717 -55.6571,-0.0759843 -113.352,-0.182677 -173.042,-0.264173 -0.448425,-0.000393701 -0.886614,0.0346457 -1.3248,0.0740157 -0.805118,0.295669 -1.58976,0.461417 -2.48543,0.452756 -9.21496,2.73504 -14.0862,15.4689 -11.2055,30.2209 11.9681,61.2807 22.7173,116.247 32.3921,165.82 8.78228,45.0004 16.7685,85.9122 24.0776,123.341 1.75945,9.00906 9.74528,15.552 17.7898,14.7756 47.5008,-4.58346 93.711,-9.04252 138.629,-13.3772 43.7429,-4.22165 86.4012,-8.3315 127.913,-12.339 6.81063,-0.65748 13.4882,-7.97441 14.8232,-16.485 5.51457,-35.1457 11.5,-73.326 18.0098,-114.816 7.11575,-45.3512 14.9217,-95.1161 23.5252,-149.963 2.32402,-14.8142 -3.22008,-27.2925 -12.387,-27.2909 -13.3642,0.0019685 -26.7693,0.00708661 -40.2969,-0.0307087z"/>
  <path fill="url(#id1)" stroke="#71625B" stroke-width="11.111" d="M384.123 120.986c-27.0827,-0.0314961 -54.6547,-0.0456693 -82.6732,-0.0669291 -28.5492,-0.0216535 -57.5457,-0.0519685 -87.1126,-0.105906 20.6213,-0.484252 3.01496,-94.4835 34.7642,-93.5555 35.976,1.05157 71.2039,2.08071 105.687,3.00709 29.1083,0.852756 10.5528,90.1953 29.335,90.7213z"/>
  <path fill="url(#id2)" stroke="#969594" stroke-width="11.111" d="M319.98 120.917c-28.2638,-0.000787402 -56.9752,-0.0240157 -86.1756,-0.0559055 -29.7709,-0.0322835 -60.0709,-0.073622 -90.9815,-0.13937 21.5252,-0.527559 -2.57559,-96.6437 30.6264,-95.6732 37.6504,1.1 74.4634,2.17598 110.483,3.14567 30.4736,0.890551 16.4209,92.1815 36.0476,92.7228z"/>
  <path fill="url(#id3)" stroke="#838281" stroke-width="11.111" d="M257.181 120.86c-29.4043,-0.0102362 -59.2571,-0.0433071 -89.6787,-0.0858268 -30.9925,-0.0433071 -62.5551,-0.0968504 -94.7287,-0.175591 22.4307,-0.527559 -8.26732,-98.7339 26.4323,-97.7209 39.2791,1.14843 77.6776,2.27047 115.284,3.3689 31.7929,0.929134 22.261,94.0567 42.6913,94.6134z"/>
  <g id="_59558184">
   <g clip-path="url(#id4)">
    <image id="_59508760" transform="matrix(1 0 0 1 -97.6618 178.907)" x="250" y="-21.561" width="264.782" height="271.561" xlink:href="close_Images\close_ImgID1.png"/>
   </g>
  </g>
  <g id="_59554736">
   <path id="_59557368" fill="darkred" fill-rule="nonzero" d="M154.589 167.131c2.19961,-40.0642 92.1858,46.8957 137.676,95.7189 44.2185,47.4579 61.7067,98.6094 75.0803,116.811l1.79331 14.2669c-13.1457,-17.8906 -50.8303,-68.4512 -94.1787,-114.976 -42.076,-45.1591 -123.457,-55.6157 -121.667,-88.2228l1.29567 -23.598z"/>
   <path id="_59555032" fill="darkred" fill-rule="nonzero" d="M152.338 365.732c51.3,-28.7039 106.123,-61.5358 146.841,-103.358 5.72205,-5.87717 75.1835,-69.7299 73.0335,-73.761l9.98701 -12.1669 0.0023622 0.00433071c4.24055,7.95 -27.2169,51.1811 -71.7331,96.9047 -42.7283,43.8874 -97.0118,92.2862 -140.263,115.575l5.53583 -3.08189 -6.29331 3.47126 -17.1102 -23.5878z"/>
  </g>
 </g>
</svg>
