<?xml version="1.0" encoding="UTF-8"?>
<!DOCTYPE svg PUBLIC "-//W3C//DTD SVG 1.1//EN" "http://www.w3.org/Graphics/SVG/1.1/DTD/svg11.dtd">
<!-- Creator: CorelDRAW -->
<svg xmlns="http://www.w3.org/2000/svg" xml:space="preserve" width="5in" height="5in" shape-rendering="geometricPrecision" text-rendering="geometricPrecision" image-rendering="optimizeQuality" fill-rule="evenodd" clip-rule="evenodd"
viewBox="0 0 500 500"
 xmlns:xlink="http://www.w3.org/1999/xlink">
 <defs>
   <radialGradient id="id0" gradientUnits="userSpaceOnUse" cx="242.746" cy="235.204" r="226.5" fx="242.746" fy="235.204">
    <stop offset="0" stop-color="white"/>
    <stop offset="1" stop-color="mediumturquoise"/>
   </radialGradient>
   <radialGradient id="id1" gradientUnits="userSpaceOnUse" cx="140.311" cy="226.422" r="127.696" fx="140.311" fy="226.422">
    <stop offset="0" stop-color="#E77817"/>
    <stop offset="1" stop-color="goldenrod"/>
   </radialGradient>
 </defs>
 <g id="Layer_x0020_1">
  <metadata id="CorelCorpID_0Corel-Layer"/>
  <path fill="url(#id0)" stroke="mediumturquoise" stroke-width="0.3" d="M79.0386 105.882c44.6748,-14.3189 91.5657,-29.3185 140.67,-45.0421 51.5343,-16.5024 105.768,-33.874 162.825,-52.1358 9.74213,45.4594 20.7445,96.6929 33.2315,154.912 14.3531,66.9193 30.9913,144.454 50.4909,235.295 -88.7783,12.4657 -171.074,24.0295 -247.38,34.7488 -71.1201,9.99055 -137.548,19.315 -199.639,28.0433 13.2142,-78.5657 24.8169,-147.667 35.0819,-208.725 9.12874,-54.2988 17.3315,-103.117 24.7197,-147.096zm11.1803 8.61142c41.2713,-13.002 84.3551,-26.5461 129.365,-40.6795 47.0634,-14.7783 96.3295,-30.1933 147.934,-46.3941 7.94685,41.9933 16.7634,88.8484 26.7421,141.441 11.2933,59.5185 24.2197,127.339 39.0953,205.344 -76.3358,11.6559 -147.738,22.572 -214.596,32.8358 -62.7984,9.64055 -121.883,18.7421 -177.606,27.2961 10.5189,-68.9594 19.9256,-130.306 28.3469,-185.178 7.57126,-49.3346 14.4571,-94.0185 20.7193,-134.665z"/>
  <path fill="none" d="M282.52 303.789c-18.9413,16.0319 -40.7217,26.7689 -62.6744,30.8961 -33.6882,6.33386 -62.3374,-3.32874 -81.0791,-22.8976 -17.5331,-18.3075 -25.9886,-46.0622 -22.7783,-75.7646 3.21024,-29.7024 16.3236,-56.3252 34.9413,-78.1787 18.2555,-21.4283 42.2157,-38.2835 69.348,-46.3161 27.1319,-8.03268 53.5752,-5.55394 74.0441,5.72835 21.7732,12.0016 37.6878,34.1551 41.3846,64.2244"/>
  <path fill="url(#id1)" fill-rule="nonzero" d="M312.291 278.59l-37.7504 75.5272c-2.66299,-10.8949 -7.27402,-20.5102 -13.6626,-28.6492 -12.4846,6.90394 -25.95,11.9929 -40.0126,14.6634 -31.374,5.55039 -63.4457,-0.965748 -86.0921,-24.5035 -20.3819,-21.2665 -27.1681,-51.5169 -24.2976,-80.1913 3.08622,-29.8791 16.7008,-58.5768 36.2437,-81.1953 18.6815,-21.8752 44.0421,-40.248 71.9953,-48.0307 27.139,-7.48425 52.9492,-6.57441 78.276,6.18425 5.74055,3.37717 11.7394,7.08346 16.4331,11.8713 16.889,14.2756 24.1224,35.5484 27.7945,56.5413l-11.0244 1.34567c-1.58189,-23.7016 -17.2622,-49.1449 -38.5417,-60.0362 -19.8807,-12 -48.224,-12.0957 -69.8122,-5.27244 -26.3413,8.40669 -48.7406,23.5713 -66.7008,44.6016 -18.1961,21.7768 -30.3201,46.7976 -33.639,75.1622 -2.86654,25.2803 3.43228,52.5547 21.2591,71.3378 19.6693,20.4433 48.7587,26.6839 76.0661,21.2917 11.9925,-2.27717 23.5067,-6.48661 34.2693,-12.1594 -6.11654,-5.59567 -13.3213,-10.2083 -21.5303,-13.7366l80.7268 -24.7516z"/>
  <line fill="none" x1="225.516" y1="221.718" x2="54.2315" y2= "96.3445" />
  <path fill="forestgreen" fill-rule="nonzero" d="M107.198 141.983l115.041 84.2055 6.55354 -8.94094 -115.049 -84.2114c6.11457,-7.09331 13.7311,-13.0417 22.7472,-17.6945l-82.2591 -18.9972 42.9736 72.6685c1.7185,-9.99449 5.08386,-19.0547 9.99291,-27.0299z"/>
 </g>
</svg>
