<?xml version="1.0" encoding="UTF-8"?>
<!DOCTYPE svg PUBLIC "-//W3C//DTD SVG 1.1//EN" "http://www.w3.org/Graphics/SVG/1.1/DTD/svg11.dtd">
<!-- Creator: CorelDRAW -->
<svg xmlns="http://www.w3.org/2000/svg" xml:space="preserve" width="100%" height="100%" shape-rendering="geometricPrecision" text-rendering="geometricPrecision" image-rendering="optimizeQuality" fill-rule="evenodd" clip-rule="evenodd"
viewBox="0 0 5 5"
 xmlns:xlink="http://www.w3.org/1999/xlink">
 <g id="Layer_x0020_1">
  <metadata id="CorelCorpID_0Corel-Layer"/>
  <g id="_58907272">
   <path id="_59255864" fill="none" d="M2.58698 0.621319c0.861421,0 1.56,0.698579 1.56,1.56 0,0.861417 -0.698583,1.56 -1.56,1.56 -0.861417,0 -1.56,-0.698583 -1.56,-1.56 0,-0.861417 0.698579,-1.56 1.56,-1.56z"/>
   <path id="_58979456" fill="springgreen" fill-rule="nonzero" d="M3.1435 0.689228c0.269492,0.090311 0.510638,0.241839 0.706819,0.438024 0.328736,0.32874 0.532106,0.783673 0.532118,1.28681l0.00101575 0 0 4.33071e-005 0 2.3622e-005 -0.00101575 0c-7.87402e-006,0.50315 -0.203382,0.958098 -0.532134,1.28685 -0.32874,0.328732 -0.783673,0.532102 -1.28681,0.532114l0 0.00101575 -4.72441e-005 0 -1.9685e-005 0 0 -0.00101575c-0.50315,-3.93701e-006 -0.958098,-0.203378 -1.28685,-0.53213 -0.328736,-0.32874 -0.532102,-0.783673 -0.532114,-1.28681l-0.00101575 0 0 -4.72441e-005 0 -1.9685e-005 0.00101575 0c3.93701e-006,-0.50315 0.203378,-0.958098 0.532126,-1.28685 0.199929,-0.199921 0.446535,-0.353476 0.72226,-0.443118l0 0.558264c-0.132043,0.0639961 -0.251799,0.149709 -0.354602,0.252512 -0.235886,0.235886 -0.381811,0.560937 -0.381815,0.919189l0.00101575 0 0 1.9685e-005 0 4.72441e-005 -0.00101575 0c7.87402e-006,0.358232 0.145925,0.683272 0.381803,0.91915 0.235882,0.23589 0.560937,0.381815 0.919189,0.381819l0 -0.00101575 1.9685e-005 0 4.72441e-005 0 0 0.00101575c0.358232,-7.87402e-006 0.683272,-0.145929 0.919154,-0.381803 0.235886,-0.235886 0.381815,-0.560941 0.381819,-0.919189l-0.00101969 0 0 -2.3622e-005 0 -4.33071e-005 0.00101969 0c-1.1811e-005,-0.358236 -0.145929,-0.683272 -0.381807,-0.91915 -0.0987795,-0.0987835 -0.213213,-0.181787 -0.339161,-0.244906l0 -0.560776z"/>
   <g>
    <path id="_60980488" fill="#44AF44" d="M3.2316 0.816398l0 0.380429c0.11489,0.0633976 0.2205,0.142925 0.313354,0.235783 0.240268,0.240268 0.3835,0.556508 0.404827,0.893413l0.00278346 0 3.93701e-006 0.176138 -0.0027874 0c-0.0213228,0.336917 -0.164563,0.653177 -0.404843,0.893453 -0.240268,0.24026 -0.556512,0.3835 -0.893413,0.404827l0 0.00277953 -0.176142 3.93701e-006 0 -0.00278346c-0.336913,-0.0213228 -0.653173,-0.164563 -0.893449,-0.404843 -0.240264,-0.240268 -0.3835,-0.556508 -0.404827,-0.893413l-0.00277953 0 -3.93701e-006 -0.176138 0.00278346 0c0.0213228,-0.336917 0.164563,-0.653177 0.404839,-0.893453 0.0970236,-0.0970236 0.207937,-0.179457 0.328799,-0.244169l0 -0.378406c-0.213657,0.0867992 -0.40828,0.215941 -0.571858,0.379516 -0.325846,0.325846 -0.506319,0.763815 -0.506323,1.22455l0 6.29921e-005c7.87402e-006,0.46072 0.180472,0.898677 0.506311,1.22451 0.325843,0.32585 0.763811,0.506319 1.22455,0.506327l6.29921e-005 0c0.46072,-7.87402e-006 0.898677,-0.18048 1.22451,-0.506311 0.32585,-0.325843 0.506323,-0.763819 0.506331,-1.22455l0 -6.69291e-005c-1.1811e-005,-0.460717 -0.18048,-0.898673 -0.506315,-1.22451 -0.159583,-0.159587 -0.34878,-0.286445 -0.556413,-0.373154z"/>
    <path id="_100018320" fill="#62B739" d="M3.31223 0.942445l0 0.207681c0.105437,0.0627598 0.202866,0.138594 0.28974,0.225469 0.236138,0.236146 0.383693,0.541799 0.421535,0.869795l0.00968898 0 3.93701e-006 0.337402 -0.00968898 0c-0.0378425,0.328012 -0.185402,0.633685 -0.421555,0.869835 -0.236146,0.236138 -0.541803,0.383693 -0.869799,0.421539l0 0.00968898 -0.337402 3.93701e-006 0 -0.00968898c-0.328012,-0.0378425 -0.633685,-0.185406 -0.869831,-0.421559 -0.236142,-0.236138 -0.383693,-0.541799 -0.421539,-0.869795l-0.00968898 0 -3.93701e-006 -0.337402 0.00968898 0c0.0378425,-0.328012 0.185406,-0.633685 0.421555,-0.869835 0.0911142,-0.0911142 0.193815,-0.170059 0.305177,-0.234528l0 -0.20637c-0.160272,0.0794134 -0.307075,0.184736 -0.434209,0.311866 -0.310728,0.310728 -0.482705,0.728189 -0.482709,1.16754l0 5.90551e-005c1.1811e-005,0.439335 0.17198,0.85678 0.482697,1.1675 0.310724,0.310732 0.728181,0.482709 1.16753,0.482713l6.29921e-005 0c0.439335,-1.1811e-005 0.85678,-0.171984 1.1675,-0.482697 0.310728,-0.310728 0.482705,-0.728185 0.482709,-1.16754l0 -6.29921e-005c-7.87402e-006,-0.439331 -0.171976,-0.856776 -0.482693,-1.1675 -0.123012,-0.123012 -0.26448,-0.225634 -0.418772,-0.304118z"/>
    <path id="_58635728" fill="#84C225" d="M3.38656 1.06911l0 0.0394409c0.0968425,0.061315 0.186795,0.133311 0.267972,0.214484 0.232185,0.232193 0.38285,0.528476 0.43378,0.848028l0.0192126 0 0 0.243008 7.87402e-006 0.243047 -0.0192126 0c-0.0509331,0.319567 -0.201602,0.61587 -0.433807,0.848071 -0.232193,0.232185 -0.528476,0.38285 -0.848028,0.433776l0 0.0192165 -0.243008 0 -0.243047 3.93701e-006 0 -0.0192126c-0.319567,-0.0509291 -0.615866,-0.201598 -0.848063,-0.433803 -0.232193,-0.232189 -0.382854,-0.528472 -0.43378,-0.848024l-0.0192165 0 0 -0.243012 -3.93701e-006 -0.243047 0.0192126 0c0.0509252,-0.319567 0.201598,-0.615866 0.433799,-0.848063 0.0854921,-0.0854921 0.180689,-0.160776 0.283409,-0.22413l0 -0.039126c-0.111587,0.0665551 -0.214898,0.146913 -0.307327,0.239339 -0.296791,0.296791 -0.460933,0.695343 -0.460937,1.11498l0 5.51181e-005c1.1811e-005,0.419622 0.164146,0.818161 0.460925,1.11494 0.296791,0.296795 0.695343,0.460937 1.11498,0.460937l5.90551e-005 0c0.419626,-7.87402e-006 0.818161,-0.16415 1.11494,-0.460921 0.296795,-0.296791 0.460937,-0.695343 0.460941,-1.11498l0 -5.90551e-005c-7.87402e-006,-0.419622 -0.164146,-0.818161 -0.460925,-1.11494 -0.0881299,-0.0881339 -0.186181,-0.165307 -0.291886,-0.230012z"/>
   </g>
   <rect id="_100809800" fill="springgreen" stroke="mediumturquoise" stroke-width="0.003" x="2.34522" y="0.292203" width="0.473817" height="2.24755"/>
   <g>
    <rect id="_58945016" fill="#57B43D" stroke="#5FBBA9" stroke-width="0.003" x="2.44522" y="0.392205" width="0.273815" height="2.04755"/>
    <rect id="_59184416" fill="#84C225" stroke="#7BC4A0" stroke-width="0.003" x="2.54522" y="0.492205" width="0.073815" height="1.84755"/>
   </g>
  </g>
 </g>
</svg>
