<?xml version="1.0" encoding="UTF-8"?>
<!DOCTYPE svg PUBLIC "-//W3C//DTD SVG 1.1//EN" "http://www.w3.org/Graphics/SVG/1.1/DTD/svg11.dtd">
<!-- Creator: CorelDRAW -->
<svg xmlns="http://www.w3.org/2000/svg" xml:space="preserve" width="100%" height="100%" shape-rendering="geometricPrecision" text-rendering="geometricPrecision" image-rendering="optimizeQuality" fill-rule="evenodd" clip-rule="evenodd"
viewBox="0 0 500 500"
 xmlns:xlink="http://www.w3.org/1999/xlink">
 <defs>
   <radialGradient id="id0" gradientUnits="userSpaceOnUse" cx="188.267" cy="156.664" r="199.257" fx="188.267" fy="156.664">
    <stop offset="0" stop-color="white"/>
    <stop offset="1" stop-color="#B6DDC7"/>
   </radialGradient>
   <linearGradient id="id1" gradientUnits="userSpaceOnUse" x1="220.555" y1="161.781" x2="451.071" y2="-120.343">
    <stop offset="0" stop-color="#96AEBE"/>
    <stop offset="0.301961" stop-color="#CAD6DE"/>
    <stop offset="1" stop-color="white"/>
   </linearGradient>
   <radialGradient id="id2" gradientUnits="userSpaceOnUse" cx="224.315" cy="67.9591" r="88.5787" fx="224.315" fy="67.9591">
    <stop offset="0" stop-color="white"/>
    <stop offset="1" stop-color="#7BC4A0"/>
   </radialGradient>
   <radialGradient id="id3" gradientUnits="userSpaceOnUse" cx="194.483" cy="67.7193" r="92.2039" fx="194.483" fy="67.7193">
    <stop offset="0" stop-color="white"/>
    <stop offset="1" stop-color="#B6DDC7"/>
   </radialGradient>
   <radialGradient id="id4" gradientUnits="userSpaceOnUse" cx="237.827" cy="164.142" r="154.322" fx="237.827" fy="164.142">
    <stop offset="0" stop-color="white"/>
    <stop offset="0.211765" stop-color="#F7FFFF"/>
    <stop offset="1" stop-color="azure"/>
   </radialGradient>
 </defs>
 <g id="Layer_x0020_1">
  <metadata id="CorelCorpID_0Corel-Layer"/>
  <path fill="url(#id0)" stroke="#71625B" stroke-width="11.111" d="M406.044 120.224c-50.4413,0.0015748 -102.595,-0.0440945 -156.418,-0.117717 -55.6571,-0.0759843 -113.352,-0.183071 -173.042,-0.264173 -0.448425,-0.000393701 -0.886614,0.0346457 -1.3248,0.073622 -0.805118,0.295669 -1.58976,0.461811 -2.48543,0.45315 -9.21496,2.73504 -14.0862,15.4685 -11.2055,30.2205 11.9681,61.2811 22.7173,116.247 32.3921,165.82 8.78228,45.0008 16.7685,85.9126 24.0776,123.341 1.75945,9.00906 9.74528,15.5516 17.7898,14.7756 47.5008,-4.58386 93.711,-9.04252 138.629,-13.3772 43.7429,-4.22165 86.4012,-8.3315 127.913,-12.3394 6.81063,-0.657087 13.4882,-7.97441 14.8232,-16.4846 5.51457,-35.1461 11.5,-73.3264 18.0098,-114.816 7.11575,-45.3508 14.9217,-95.1161 23.5252,-149.963 2.32402,-14.8146 -3.22008,-27.2925 -12.387,-27.2909 -13.3642,0.0015748 -26.7693,0.00708661 -40.2969,-0.0307087z"/>
  <path fill="url(#id1)" stroke="#71625B" stroke-width="11.111" d="M384.123 120.756c-27.0827,-0.0314961 -54.6547,-0.0456693 -82.6732,-0.0669291 -28.5492,-0.0220472 -57.5457,-0.0519685 -87.1126,-0.105906 20.6213,-0.484252 3.01496,-94.4835 34.7642,-93.5555 35.976,1.05157 71.2039,2.08031 105.687,3.00709 29.1083,0.852756 10.5528,90.1949 29.335,90.7213z"/>
  <path fill="url(#id2)" stroke="#969594" stroke-width="11.111" d="M319.98 120.687c-28.2638,-0.0011811 -56.9752,-0.0244094 -86.1756,-0.0559055 -29.7709,-0.0326772 -60.0709,-0.073622 -90.9815,-0.13937 21.5252,-0.527559 -2.57559,-96.6441 30.6264,-95.6736 37.6504,1.10039 74.4634,2.17598 110.483,3.14606 30.4736,0.890551 16.4209,92.1811 36.0476,92.7228z"/>
  <path fill="url(#id3)" stroke="#838281" stroke-width="11.111" d="M257.181 120.63c-29.4043,-0.0106299 -59.2571,-0.0437008 -89.6787,-0.0862205 -30.9925,-0.0429134 -62.5551,-0.0968504 -94.7287,-0.175197 22.4307,-0.527559 -8.26732,-98.7339 26.4323,-97.7213 39.2791,1.14882 77.6776,2.27087 115.284,3.36929 31.7929,0.929134 22.261,94.0567 42.6913,94.6134z"/>
  <path fill="url(#id4)" fill-rule="nonzero" stroke="#1F1A17" stroke-width="11.111" d="M227.203 457.353c-1.82244,-18.337 -3.85512,-39.0012 -6.24724,-62.5079 -2.74016,-26.9366 -5.95591,-58.0638 -9.80197,-94.6697 -14.5724,1.03425 -29.3189,2.10906 -44.1528,3.15591 -14.9496,1.05394 -30.1031,2.1189 -45.2862,3.18661 21.3685,-21.5508 44.3551,-44.6843 68.9094,-69.6902 26.5142,-27.0028 55.0744,-56.3331 86.0929,-88.1181 29.2311,29.3673 55.2409,55.5815 78.4421,79.1209 20.8417,21.1457 39.6976,40.3126 56.8366,57.7858 -12.9177,0.940157 -25.9205,1.91654 -39.0126,2.86575 -13.235,0.959449 -26.5307,1.92087 -39.9701,2.92126 -5.59882,36.1228 -10.4457,67.0587 -14.7146,93.9169 -3.73307,23.4839 -7.05472,44.2469 -10.0354,62.6894 -13.272,1.52913 -26.6413,3.06969 -40.1059,4.62126 -13.5224,1.55827 -27.2193,3.1378 -40.9543,4.72205zm-6.24724 -62.5079m-53.9547 -91.5138m23.6232 -66.5035m164.535 -8.99724m17.824 60.6516m-54.6846 96.8382m-50.1413 67.3106"/>
 </g>
</svg>
