<?xml version="1.0" encoding="UTF-8"?>
<!DOCTYPE svg PUBLIC "-//W3C//DTD SVG 1.1//EN" "http://www.w3.org/Graphics/SVG/1.1/DTD/svg11.dtd">
<!-- Creator: CorelDRAW -->
<svg xmlns="http://www.w3.org/2000/svg" xml:space="preserve" width="5in" height="5in" shape-rendering="geometricPrecision" text-rendering="geometricPrecision" image-rendering="optimizeQuality" fill-rule="evenodd" clip-rule="evenodd"
viewBox="0 0 500 500"
 xmlns:xlink="http://www.w3.org/1999/xlink">
 <defs>
   <radialGradient id="id0" gradientUnits="userSpaceOnUse" cx="242.746" cy="235.204" r="226.5" fx="242.746" fy="235.204">
    <stop offset="0" stop-color="white"/>
    <stop offset="1" stop-color="mediumturquoise"/>
   </radialGradient>
   <radialGradient id="id1" gradientUnits="userSpaceOnUse" cx="149.027" cy="185.958" r="152.54" fx="149.027" fy="185.958">
    <stop offset="0" stop-color="white"/>
    <stop offset="0.258824" stop-color="#E38AC2"/>
    <stop offset="1" stop-color="mediumvioletred"/>
   </radialGradient>
 </defs>
 <g id="Layer_x0020_1">
  <metadata id="CorelCorpID_0Corel-Layer"/>
  <path fill="url(#id0)" stroke="mediumturquoise" stroke-width="0.3" d="M79.0386 105.882c44.6748,-14.3189 91.5657,-29.3185 140.67,-45.0421 51.5343,-16.5024 105.768,-33.874 162.825,-52.1358 9.74213,45.4594 20.7445,96.6929 33.2315,154.912 14.3531,66.9193 30.9913,144.454 50.4909,235.295 -88.7783,12.4657 -171.074,24.0295 -247.38,34.7488 -71.1201,9.99055 -137.548,19.315 -199.639,28.0433 13.2142,-78.5657 24.8169,-147.667 35.0819,-208.725 9.12874,-54.2988 17.3315,-103.117 24.7197,-147.096zm11.1803 8.61142c41.2713,-13.002 84.3551,-26.5461 129.365,-40.6795 47.0634,-14.7783 96.3295,-30.1933 147.934,-46.3941 7.94685,41.9933 16.7634,88.8484 26.7421,141.441 11.2933,59.5185 24.2197,127.339 39.0953,205.344 -76.3358,11.6559 -147.738,22.572 -214.596,32.8358 -62.7984,9.64055 -121.883,18.7421 -177.606,27.2961 10.5189,-68.9594 19.9256,-130.306 28.3469,-185.178 7.57126,-49.3346 14.4571,-94.0185 20.7193,-134.665z"/>
  <path fill="url(#id1)" stroke="mediumvioletred" stroke-width="0.3" d="M98.3272 305.087c-20.622,-5.22717 -17.9732,-33.6472 4.26102,-62.9201 -14.822,-18.7185 -4.25906,-46.9445 11.3937,-56.9811 15.6528,-10.0366 23.2823,-9.57717 35.6661,-8.7748 12.689,0.822441 28.0063,8.11142 34.5374,14.1807 6.5311,6.06929 6.64961,7.3752 8.79488,11.4287 3.27913,4.03228 4.69291,9.67441 4.21693,16.478 0.0870079,6.72835 -1.7748,13.4787 -5.52047,19.5862 -2.6248,5.74685 -2.61299,6.90906 -10.5949,18.0083 -7.98189,11.0992 -26.7583,29.6417 -41.9819,38.6181 -15.1862,8.95433 -30.0299,13.1035 -40.7728,10.376zm193.656 38.4409c-9.07559,36.9469 -42.8854,45.2319 -72.6492,19.1858 -28.8618,35.1362 -61.6634,28.7016 -67.448,5.26102 -5.78465,-23.4406 -1.39606,-34.8142 5.08031,-54.3138 6.2937,-18.9508 20.5323,-42.4252 29.4756,-52.7705 8.94331,-10.3453 10.0709,-10.6118 15.0657,-14.4362 5.15669,-5.05866 11.3673,-8.30472 18.15,-9.60354 6.8689,-1.92402 13.2327,-1.64291 18.5189,1.04409 5.19724,1.52874 6.18504,1.11299 15.826,7.58937 9.64094,6.47638 25.3244,24.5783 32.3524,41.8819 7.35354,18.1051 10.0035,38.4244 5.62835,56.1618zm-120.883 -221.86c8.62677,-20.5311 30.9862,-29.0654 51.4941,-19.2996 21.1445,-22.8063 47.2575,-24.9898 54.3783,-12.8705 7.12087,12.1193 4.97874,21.2055 1.01811,35.3776 -4.06496,14.5465 -16.002,34.3961 -24.1795,43.7303 -8.17756,9.33425 -9.42559,9.78228 -14.2122,13.3961 -4.87047,4.79646 -10.8933,7.97795 -17.424,9.36929 -6.46693,1.9622 -12.35,1.89213 -17.0937,-0.333858 -4.52047,-1.10748 -5.82047,-0.977559 -13.3606,-5.8437 -7.54016,-4.86614 -18.2701,-17.7406 -21.8362,-29.4409 -3.43858,-11.2811 -3.24685,-23.4583 1.21575,-34.0846zm171.544 1.55157c27.211,1.24843 34.3709,26.6071 14.2614,57.6476 29.813,20.5319 26.2303,56.8961 5.10472,69.9449 -21.1256,13.0488 -32.9063,11.5744 -51.4346,9.17559 -17.9807,-2.32795 -39.2906,-13.0146 -48.0059,-20.7512 -8.71535,-7.73661 -8.55709,-8.8378 -11.3295,-13.4819 -3.95472,-4.45984 -5.86063,-10.4504 -5.73346,-17.4661 -0.462992,-6.71929 1.09724,-13.3024 4.60591,-19.222 2.34606,-5.4311 2.43583,-6.70866 9.62953,-16.7988 7.1937,-10.0902 24.4717,-26.948 39.2217,-35.6752 14.8185,-8.76732 30.4528,-13.9803 43.6803,-13.3728z"/>
 </g>
</svg>
