<?xml version="1.0" encoding="UTF-8"?>
<!DOCTYPE svg PUBLIC "-//W3C//DTD SVG 1.1//EN" "http://www.w3.org/Graphics/SVG/1.1/DTD/svg11.dtd">
<!-- Creator: CorelDRAW -->
<svg xmlns="http://www.w3.org/2000/svg" xml:space="preserve" width="100%" height="100%" shape-rendering="geometricPrecision" text-rendering="geometricPrecision" image-rendering="optimizeQuality" fill-rule="evenodd" clip-rule="evenodd"
viewBox="0 0 500 500"
 xmlns:xlink="http://www.w3.org/1999/xlink">
 <defs>
    <linearGradient id="id0" gradientUnits="userSpaceOnUse" x1="40.9035" y1="85.6535" x2="466.354" y2="85.6535">
     <stop offset="0" stop-color="darkslateblue"/>
     <stop offset="0.368627" stop-color="#A39EC5"/>
     <stop offset="1" stop-color="white"/>
    </linearGradient>
    <radialGradient id="id1" gradientUnits="userSpaceOnUse" cx="66.4575" cy="153.805" r="151.925" fx="66.4575" fy="153.805">
     <stop offset="0" stop-color="#B6DDC7"/>
     <stop offset="1" stop-color="white"/>
    </radialGradient>
    <radialGradient id="id2" gradientUnits="userSpaceOnUse" cx="73.8008" cy="72.487" r="16.8118" fx="73.8008" fy="72.487">
     <stop offset="0" stop-color="white"/>
     <stop offset="1" stop-color="firebrick"/>
    </radialGradient>
    <linearGradient id="id3" gradientUnits="userSpaceOnUse" x1="437.933" y1="105.296" x2="396.565" y2="65.3547">
     <stop offset="0" stop-color="yellowgreen"/>
     <stop offset="1" stop-color="white"/>
    </linearGradient>
    <linearGradient id="id4" gradientUnits="userSpaceOnUse" x1="337.632" y1="68.7531" x2="372.764" y2="101.897">
     <stop offset="0" stop-color="yellowgreen"/>
     <stop offset="1" stop-color="white"/>
    </linearGradient>
 </defs>
 <g id="Layer_x0020_1">
  <metadata id="CorelCorpID_0Corel-Layer"/>
  <g id="_59614048">
   <path id="_59622720" fill="#1F1A17" fill-rule="nonzero" d="M481.879 123.839l0 340.791 0 0.00393701 -0.030315 0.0909449c-0.030315,2.2626 -0.970472,4.27677 -2.4626,5.70984 -1.40315,1.34646 -3.29252,2.1874 -5.40433,2.24409l-0.182283 0.030315 -0.00826772 0 -440.324 0 -0.00433071 0 -0.0909449 -0.030315c-2.1622,-0.0279528 -4.12835,-0.90315 -5.5626,-2.30866l-0.0011811 0.0011811 -0.0228346 -0.0240157 -0.00748031 -0.00629921c-1.42205,-1.40827 -2.30866,-3.3189 -2.36811,-5.49055l-0.030315 -0.212598 0 -0.00787402 0 -340.791 15.5551 0 0 333.315 425.39 0 0 -333.315 15.5551 0z"/>
   <path id="_59620808" fill="#1F1A17" fill-rule="nonzero" d="M48.8996 31.9429l409.458 0 0.00433071 0 0 0.030315c6.43189,0.000787402 12.2815,2.55827 16.5244,6.67638 4.29252,4.16614 6.95866,9.94803 6.96181,16.3402l0.030315 0 0 0.00787402 0 72.1173 -15.5551 0 0 -72.1173 0 -0.00787402 0.030315 0c-0.000787402,-2.00315 -0.875984,-3.85433 -2.28386,-5.22087 -1.46142,-1.4185 -3.48346,-2.30039 -5.70787,-2.30118l0 0.030315 -0.00433071 0 -409.458 0 -0.00826772 0 0 -0.030315c-2.22165,0.0011811 -4.24055,0.88189 -5.70118,2.29843 -1.40945,1.36772 -2.28661,3.22165 -2.28661,5.22756l0.030315 0 0 0.00393701 0 72.1173 -15.5551 0 0 -72.1173 0 -0.00393701 0.030315 0c0.0015748,-6.3937 2.66929,-12.1795 6.96457,-16.3469 4.24173,-4.11535 10.0894,-6.67087 16.5177,-6.67362l0 -0.030315 0.00826772 0z"/>
   <rect id="_59620016" fill="black" stroke="black" stroke-width="0.3" x="40.934" y="123.839" width="425.39" height="7.13228"/>
   <path id="_59618392" fill="url(#id0)" stroke="darkslateblue" stroke-width="0.3" d="M458.358 47.498l0 0zm-417.424 7.49961l0 0zm0 68.8417l425.39 0 0 -68.8417 0 -0.00787402 0.030315 0c-0.000787402,-2.00315 -0.875984,-3.85433 -2.28386,-5.22087 -1.46142,-1.4185 -3.48346,-2.30039 -5.70787,-2.30118l-0.00433071 0.030315 -409.458 0 -0.00826772 0 0 -0.030315c-2.22165,0.0011811 -4.24055,0.88189 -5.70118,2.29843 -1.40945,1.36772 -2.28661,3.22165 -2.28661,5.22756l0.030315 0.00393701 0 68.8417z"/>
   <polygon id="_59617160" fill="url(#id1)" stroke="mediumturquoise" stroke-width="0.3" points="466.324,130.972 40.9339,130.972 40.9339,457.155 466.324,457.155 "/>
   <ellipse id="_59616368" fill="url(#id2)" stroke="firebrick" stroke-width="0.3" cx="82.7449" cy="83.8987" rx="23.5365" ry="22.8233"/>
   <rect id="_59615400" fill="url(#id3)" stroke="yellowgreen" stroke-width="0.3" x="396.565" y="65.3548" width="41.3673" height="39.9408"/>
   <rect id="_59614192" fill="url(#id4)" stroke="yellowgreen" stroke-width="0.3" x="334.515" y="65.3548" width="41.3673" height="39.9408"/>
  </g>
 </g>
</svg>
