<?xml version="1.0" encoding="UTF-8"?>
<!DOCTYPE svg PUBLIC "-//W3C//DTD SVG 1.1//EN" "http://www.w3.org/Graphics/SVG/1.1/DTD/svg11.dtd">
<!-- Creator: CorelDRAW -->
<svg xmlns="http://www.w3.org/2000/svg" xml:space="preserve" width="5in" height="5in" shape-rendering="geometricPrecision" text-rendering="geometricPrecision" image-rendering="optimizeQuality" fill-rule="evenodd" clip-rule="evenodd"
viewBox="0 0 500 500"
 xmlns:xlink="http://www.w3.org/1999/xlink">
 <g id="Layer_x0020_1">
  <metadata id="CorelCorpID_0Corel-Layer"/>
  <path fill="mediumturquoise" stroke="mediumturquoise" stroke-width="0.3" d="M252.18 248.75l202.442 -117.454 -203.319 -114.662 -202.767 115.478 203.644 116.638zm-0.0562992 -10.8827l183.459 -106.441 -184.254 -103.91 -183.754 104.65 184.549 105.701z"/>
  <path fill="darkcyan" stroke="darkcyan" stroke-width="0.3" d="M454.874 365.03l-0.497638 -234.047 -202.197 117.767 -0.13937 234.322 202.834 -118.042zm-9.50984 -5.43898l-0.450787 -212.1 -183.237 106.724 -0.126378 212.35 183.814 -106.974z"/>
  <path fill="aqua" stroke="aqua" stroke-width="0.3" d="M251.435 248.702l-202.939 -116.593 2.35984 233.411 201.39 117.862 -0.81063 -234.68zm-9.47677 5.53661l-183.91 -105.66 2.13858 211.524 182.506 106.81 -0.734646 -212.674z"/>
 </g>
</svg>
